<svg xmlns="http://www.w3.org/2000/svg" xmlns:xlink="http://www.w3.org/1999/xlink" width="460.81" height="385" viewBox="0 0 460.81 385">
  <defs>
    <clipPath id="clip-path">
      <path id="Path_242" data-name="Path 242" d="M690,70.02V429.98a12.526,12.526,0,0,1-12.52,12.52H229.19c12.16-9.47,25.91-17.26,39.83-23.72,30.77-14.28,63.78-23.7,93.35-40.33s56.4-42.58,62.93-75.87c11.81-60.24-45.09-114.23-46.47-175.6-.58-25.7,10.23-50.68,27.67-69.48H677.48A12.526,12.526,0,0,1,690,70.02Z" fill="none"/>
    </clipPath>
  </defs>
  <g id="Texts" transform="translate(-229.19 -57.5)">
    <g id="Group_211" data-name="Group 211" clip-path="url(#clip-path)">
      <g id="Group_77" data-name="Group 77">
        <g id="Group_76" data-name="Group 76">
          <g id="Group_75" data-name="Group 75">
            <g id="Group_73" data-name="Group 73">
              <g id="Group_72" data-name="Group 72">
                <path id="Path_140" data-name="Path 140" d="M484.271,23.882,600.438,78.574l2.412-5.125L489.741,20.2S486.835,20.393,484.271,23.882Z" fill="#ffdaa9"/>
                <path id="Path_141" data-name="Path 141" d="M482.818,26.338a14.492,14.492,0,0,0-.972,2.673l116.175,54.7,2.417-5.133L484.271,23.882A14.546,14.546,0,0,0,482.818,26.338Z" fill="#ffce84"/>
                <path id="Path_142" data-name="Path 142" d="M481.846,29.011c-1.055,4.2.649,6.576.649,6.576L595.6,88.84l2.417-5.133Z" fill="#f4b060"/>
              </g>
              <path id="Path_143" data-name="Path 143" d="M596.3,80.187a17.77,17.77,0,0,0-.9,2.286l14.677,6.112a8.573,8.573,0,0,1,2.249-2.757L602.85,73.449S599.149,74.141,596.3,80.187Z" fill="#ffebd7"/>
              <path id="Path_144" data-name="Path 144" d="M610.077,88.585l6.4,2.668-4.156-5.425A8.573,8.573,0,0,0,610.077,88.585Z" fill="#754432"/>
              <path id="Path_145" data-name="Path 145" d="M595.4,82.473c-1.4,4.426.2,6.367.2,6.367l13.676,1.59a12.169,12.169,0,0,1,.8-1.845Z" fill="#efd6bf"/>
              <path id="Path_146" data-name="Path 146" d="M609.28,90.43l7.215.839-.013-.016-6.4-2.668A12.169,12.169,0,0,0,609.28,90.43Z" fill="#603326"/>
            </g>
            <g id="Group_74" data-name="Group 74">
              <path id="Path_147" data-name="Path 147" d="M458.552,14.913a8.411,8.411,0,0,0-.792,3.095l22.29,10.5,4.959-10.534L469.87,10.841A8.505,8.505,0,0,0,458.552,14.913Z" fill="#fcacac"/>
              <path id="Path_148" data-name="Path 148" d="M457.76,18.008a8.368,8.368,0,0,0,.482,3.409,8.517,8.517,0,0,0,4.382,4.814l15.139,7.128L480.05,28.5Z" fill="#ed9494"/>
            </g>
            <path id="Path_149" data-name="Path 149" d="M474.21,22.285c-2.755,5.854-.332,9.245-.332,9.245l8.617,4.057s-1.7-2.378-.649-6.576a15.383,15.383,0,0,1,2.425-5.129c2.564-3.489,5.47-3.686,5.47-3.686l-8.617-4.057S476.97,16.424,474.21,22.285Z" fill="#d67b3c"/>
            <path id="Path_150" data-name="Path 150" d="M481.608,25.786a13.528,13.528,0,0,0-.956,8.038l-3.546-1.831a13.055,13.055,0,0,1,4.761-10.764,7.655,7.655,0,0,1,2.6-1.432c.6-.176,2.275-.209,1.377.741-.776.821-1.706,1.44-2.432,2.335A13.354,13.354,0,0,0,481.608,25.786Z" fill="#c1682b"/>
            <path id="Path_151" data-name="Path 151" d="M477.284,24.218a12.688,12.688,0,0,0-1,7.347,2.48,2.48,0,0,1-1.64-1.137,3.215,3.215,0,0,1-.233-1.8,14.361,14.361,0,0,1,3.368-8.06c.386-.451,3.394-3.272,2.782-1.226a5.622,5.622,0,0,1-1.4,1.967A12.607,12.607,0,0,0,477.284,24.218Z" fill="#c1682b"/>
          </g>
          <path id="Path_152" data-name="Path 152" d="M476.069,15.34c.416.275.858.842.506,1.195a.881.881,0,0,1-.8.109l-8.029-1.524c-1-.189-6.007-.57-4.816-2.323.989-1.458,4.718-.647,6.012-.386A20.161,20.161,0,0,1,476.069,15.34Z" fill="#ffcaca"/>
        </g>
      </g>
      <g id="Group_109" data-name="Group 109">
        <g id="Group_108" data-name="Group 108">
          <g id="Group_78" data-name="Group 78">
            <path id="Path_153" data-name="Path 153" d="M545.064,345.719l-2.977.379-32.171,84.475,86.163,24.545,1.475-1.8-80.143-26.547Z" fill="#efb765"/>
            <path id="Path_154" data-name="Path 154" d="M544.229,380.786l24.226,49.923,6.218-.413-27.694-53.281Z" fill="#efb765"/>
            <path id="Path_155" data-name="Path 155" d="M545.065,345.716l-2.351,5.995-.374.935-1.568,3.991-.374.944-1.566,4-.375.934-1.567,4-.365.933-1.576,4-.364.944-1.578,3.991-.364.934-1.577,4-.364.944-1.566,4-.375.935-1.567,4-.374.935-1.567,4-.365.933-1.576,4-.365.933-1.577,4-.365.934-1.576,4-.364.944-1.578,3.991-.364.934-1.567,4-.374.945-2.481,6.315,8.55,2.539.955.291,5.091,1.508.965.291,5.093,1.518.953.281,5.093,1.518.963.281,5.083,1.519.973.279,5.083,1.52.965.29,5.091,1.508.965.29,5.091,1.508.955.292,5.091,1.508.955.292h.01l5.092,1.508.954.291,5.093,1.518h.01l.953.282,5.093,1.518.953.282,8.781,2.61Zm-9.155,72.571,11.162-38.169,23.37,48.958Z" fill="#ffd48a"/>
            <path id="Path_156" data-name="Path 156" d="M509.916,430.573l2.784-2.5,84.854,25.241-1.475,1.8Z" fill="#dda050"/>
          </g>
          <g id="Group_94" data-name="Group 94">
            <g id="Group_79" data-name="Group 79">
              <path id="Path_157" data-name="Path 157" d="M520.029,421.975l-.249.969-4.6-1.188.374-.945Z" fill="#ce7d51"/>
            </g>
            <g id="Group_80" data-name="Group 80">
              <path id="Path_158" data-name="Path 158" d="M521.876,417.011l-.249.969-4.5-1.17.365-.934Z" fill="#ce7d51"/>
            </g>
            <g id="Group_81" data-name="Group 81">
              <path id="Path_159" data-name="Path 159" d="M523.724,412.058l-.249.969-4.41-1.141.364-.944Z" fill="#ce7d51"/>
            </g>
            <g id="Group_82" data-name="Group 82">
              <path id="Path_160" data-name="Path 160" d="M525.581,407.093l-.249.969-4.327-1.122.365-.934Z" fill="#ce7d51"/>
            </g>
            <g id="Group_83" data-name="Group 83">
              <path id="Path_161" data-name="Path 161" d="M527.43,402.139l-.249.969-4.234-1.1.365-.934Z" fill="#ce7d51"/>
            </g>
            <g id="Group_84" data-name="Group 84">
              <path id="Path_162" data-name="Path 162" d="M529.287,397.175l-.25.969-4.149-1.074.365-.934Z" fill="#ce7d51"/>
            </g>
            <g id="Group_85" data-name="Group 85">
              <path id="Path_163" data-name="Path 163" d="M531.135,392.221l-.249.969-4.066-1.054.375-.935Z" fill="#ce7d51"/>
            </g>
            <g id="Group_86" data-name="Group 86">
              <path id="Path_164" data-name="Path 164" d="M532.982,387.258l-.249.969-3.972-1.026.375-.935Z" fill="#ce7d51"/>
            </g>
            <g id="Group_87" data-name="Group 87">
              <path id="Path_165" data-name="Path 165" d="M534.84,382.3l-.249.969-3.888-1.006.364-.944Z" fill="#ce7d51"/>
            </g>
            <g id="Group_88" data-name="Group 88">
              <path id="Path_166" data-name="Path 166" d="M536.688,377.339l-.249.969-3.8-.988.365-.934Z" fill="#ce7d51"/>
            </g>
            <g id="Group_89" data-name="Group 89">
              <path id="Path_167" data-name="Path 167" d="M538.536,372.386l-.249.969-3.7-.96.364-.944Z" fill="#ce7d51"/>
            </g>
            <g id="Group_90" data-name="Group 90">
              <path id="Path_168" data-name="Path 168" d="M540.393,367.421l-.249.969-3.618-.94.365-.934Z" fill="#ce7d51"/>
            </g>
            <g id="Group_91" data-name="Group 91">
              <path id="Path_169" data-name="Path 169" d="M542.241,362.467l-.249.969-3.535-.92.375-.935Z" fill="#ce7d51"/>
            </g>
            <g id="Group_92" data-name="Group 92">
              <path id="Path_170" data-name="Path 170" d="M544.1,357.5l-.249.969-3.45-.891.373-.945Z" fill="#ce7d51"/>
            </g>
            <g id="Group_93" data-name="Group 93">
              <path id="Path_171" data-name="Path 171" d="M545.946,352.549l-.249.969-3.357-.872.375-.935Z" fill="#ce7d51"/>
            </g>
          </g>
          <g id="Group_107" data-name="Group 107">
            <g id="Group_95" data-name="Group 95">
              <path id="Path_172" data-name="Path 172" d="M524.291,424.96l-2.085,5.942-.954-.292,2.1-5.984Z" fill="#ce7d51"/>
            </g>
            <g id="Group_96" data-name="Group 96">
              <path id="Path_173" data-name="Path 173" d="M530.281,426.948l-2.019,5.752-.965-.29,2.044-5.8Z" fill="#ce7d51"/>
            </g>
            <g id="Group_97" data-name="Group 97">
              <path id="Path_174" data-name="Path 174" d="M536.269,428.927l-1.961,5.573-.953-.282,1.974-5.625Z" fill="#ce7d51"/>
            </g>
            <g id="Group_98" data-name="Group 98">
              <path id="Path_175" data-name="Path 175" d="M542.258,430.915l-1.894,5.383-.963-.28,1.918-5.436Z" fill="#ce7d51"/>
            </g>
            <g id="Group_99" data-name="Group 99">
              <path id="Path_176" data-name="Path 176" d="M548.247,432.893l-1.827,5.2-.973-.279,1.85-5.256Z" fill="#ce7d51"/>
            </g>
            <g id="Group_100" data-name="Group 100">
              <path id="Path_177" data-name="Path 177" d="M554.236,434.882l-1.769,5.024-.964-.29,1.783-5.066Z" fill="#ce7d51"/>
            </g>
            <g id="Group_101" data-name="Group 101">
              <path id="Path_178" data-name="Path 178" d="M560.225,436.86l-1.7,4.844-.964-.29,1.716-4.886Z" fill="#ce7d51"/>
            </g>
            <g id="Group_102" data-name="Group 102">
              <path id="Path_179" data-name="Path 179" d="M566.213,438.839,564.57,443.5l-.955-.292,1.649-4.7Z" fill="#ce7d51"/>
            </g>
            <g id="Group_103" data-name="Group 103">
              <path id="Path_180" data-name="Path 180" d="M572.193,440.829l-1.567,4.474h-.01l-.955-.292,1.591-4.518Z" fill="#ce7d51"/>
            </g>
            <g id="Group_104" data-name="Group 104">
              <path id="Path_181" data-name="Path 181" d="M578.181,442.807l-1.509,4.3-.954-.292,1.524-4.338Z" fill="#ce7d51"/>
            </g>
            <g id="Group_105" data-name="Group 105">
              <path id="Path_182" data-name="Path 182" d="M584.171,444.8l-1.442,4.105-.953-.282,1.456-4.158Z" fill="#ce7d51"/>
            </g>
            <g id="Group_106" data-name="Group 106">
              <path id="Path_183" data-name="Path 183" d="M590.159,446.774l-1.384,3.927-.953-.282,1.4-3.979Z" fill="#ce7d51"/>
            </g>
          </g>
          <path id="Path_184" data-name="Path 184" d="M547.732,353.128,593.8,447.215l-.987,1.578-46.164-94.866Z" fill="#fcddb1"/>
          <path id="Path_185" data-name="Path 185" d="M534.5,417.141,546.141,380l-13.3,36.556Z" fill="#fcddb1"/>
        </g>
      </g>
      <g id="Group_112" data-name="Group 112">
        <g id="Group_110" data-name="Group 110">
          <path id="Path_186" data-name="Path 186" d="M666.523,487.995a9.912,9.912,0,0,1-1.842.995,9.5,9.5,0,0,1-1.484.476c-8.341,1.9-17.723,1.567-24.811-3.738a24.278,24.278,0,0,1-6.729-7.85c-.335-.615-.642-1.253-.917-1.891a24.49,24.49,0,0,1-2.109-11.332c.016-.361.052-.716.087-1.071s.075-.689.126-1.028c.547-4.079,1.678-8.428-.554-11.8a1.84,1.84,0,0,0-.125-.174,7.688,7.688,0,0,0-1.659-1.721c-4.279-3.242-11.719-2.746-15.063-7.063a5.5,5.5,0,0,1-.4-.572,7.549,7.549,0,0,1-.6-1.177,15.1,15.1,0,0,1-.613-6.441,32.158,32.158,0,0,0,.108-5.143,9.654,9.654,0,0,0-.382-2.031c-.066-.2-.131-.4-.2-.6a8.466,8.466,0,0,0-5.114-4.648,12.263,12.263,0,0,0-2.9-.719c-.311-.042-.618-.063-.926-.084a34.512,34.512,0,0,0-10.026,1.054,7.319,7.319,0,0,0-2.828,1.415,113.481,113.481,0,0,1,9.161-7.833,45.418,45.418,0,0,1,4.007-2.707c4.834-2.883,10.426-4.791,16.046-4.359.275.022.539.05.811.081.689.075,1.378.181,2.058.315,3.913.747,7.723,2.2,11.689,2.571.159.027.314.033.467.048.51.041,1.02.051,1.529.06,4.189.047,8.539-.7,12.23,1.178a10.238,10.238,0,0,1,3.239,2.642,13.962,13.962,0,0,1,1.258,1.87c1.783,3.232,2.437,7.354,2.686,11.121a74.13,74.13,0,0,0,.781,7.977c.154.832.342,1.653.568,2.453a13.793,13.793,0,0,0,3.675,6.415,28.35,28.35,0,0,0,5.684,3.673c.421.233.828.473,1.23.732.158.1.325.2.479.313a23.432,23.432,0,0,1,10.14,16.6c.046.327.073.649.1.981a16.739,16.739,0,0,1,.034,1.736C675.257,475.126,672.129,484.261,666.523,487.995Z" fill="#d36240"/>
          <path id="Path_187" data-name="Path 187" d="M665.6,501.673l-1.866-.737a21.631,21.631,0,0,0,.944-11.946A36.2,36.2,0,0,0,662,480.557a10.556,10.556,0,0,1-4.8-.633l-.223-.057a61.38,61.38,0,0,0-25.315-1.989c-.335-.615-.642-1.253-.917-1.891a63.241,63.241,0,0,1,26.8,1.961l.223.058a11.165,11.165,0,0,0,3.328.641c-.629-1.259-1.274-2.4-1.855-3.37-1.842-3.041-3.966-6.012-6.018-8.877-.4-.563-.813-1.138-1.216-1.7a47.879,47.879,0,0,0-23.368-.045c.016-.361.052-.716.087-1.071s.075-.689.126-1.028a49.907,49.907,0,0,1,21.446-.3,68.476,68.476,0,0,1-6.2-10.543c-.325-.716-.618-1.433-.908-2.16a68.11,68.11,0,0,0-15.019,1.034,7.688,7.688,0,0,0-1.659-1.721,70.108,70.108,0,0,1,15.918-1.344c-.693-1.937-1.321-3.886-1.926-5.807-.69-2.156-1.387-4.356-2.187-6.493a83.4,83.4,0,0,0-26.868,6.581,5.5,5.5,0,0,1-.4-.572,7.549,7.549,0,0,1-.6-1.177,85.241,85.241,0,0,1,27.108-6.78,37.114,37.114,0,0,0-2.581-5.139,28.822,28.822,0,0,0-4.317-5.409,60.673,60.673,0,0,0-20.715,5.744,9.654,9.654,0,0,0-.382-2.031,62.707,62.707,0,0,1,19.085-5.51,30.494,30.494,0,0,0-9.99-5.46,73.841,73.841,0,0,0-14.414,5.726,12.263,12.263,0,0,0-2.9-.719,75.471,75.471,0,0,1,13.507-5.94,26.993,26.993,0,0,0-2.97-.375,29.974,29.974,0,0,0-21.489,7.285,7.319,7.319,0,0,0-2.828,1.415,113.481,113.481,0,0,1,9.161-7.833,31.6,31.6,0,0,1,15.3-2.863,30.422,30.422,0,0,1,6.247,1.115l-.679-5.237c.689.075,1.378.181,2.058.315l.725,5.6a32.48,32.48,0,0,1,10.148,5.937l.816-8.963c.159.027.314.033.467.048.51.041,1.02.051,1.529.06l-.962,10.6a30.253,30.253,0,0,1,4.305,5.447,37.1,37.1,0,0,1,2.572,5.063l9.554-17.292a13.962,13.962,0,0,1,1.258,1.87L640.2,434.552c.81,2.172,1.514,4.384,2.2,6.559.614,1.924,1.239,3.882,1.936,5.81l9.186-11.1c.154.832.342,1.653.568,2.453l-8.938,10.8c.252.61.495,1.218.763,1.812a75.471,75.471,0,0,0,7.309,12.075l.583.147,9.642-14.745c.421.233.828.473,1.23.732.158.1.325.2.479.313l-10.331,15.8.013.025c2.082,2.906,4.219,5.9,6.1,9.008.66,1.091,1.378,2.367,2.082,3.8a12.381,12.381,0,0,0,2.255-1.9l10.018-10.123c.046.327.073.649.1.981a16.739,16.739,0,0,1,.034,1.736l-8.729,8.813a13.529,13.529,0,0,1-2.823,2.326,38.987,38.987,0,0,1,2.649,8.13A23.9,23.9,0,0,1,665.6,501.673Z" fill="#a54129"/>
        </g>
        <g id="Group_111" data-name="Group 111">
          <path id="Path_188" data-name="Path 188" d="M701.653,475.468a36.628,36.628,0,0,1-18.19,15.142c-.7.272-1.437.538-2.209.807-.676.232-1.378.459-2.1.664-5.756,1.7-12.642,2.577-17.4-.469a15.111,15.111,0,0,1-6.841-11.753,28.978,28.978,0,0,1,1.326-9.9q.241-.845.508-1.684c.734-2.317,1.57-4.607,2.334-6.892a47.75,47.75,0,0,0,1.926-7.482c.1-.582.176-1.169.232-1.75a18.483,18.483,0,0,0-1.235-9.383c-1.4-3.216-3.908-5.853-6.094-8.632-.609-.769-1.188-1.559-1.711-2.366a14.838,14.838,0,0,1-2.029-4.4c-1.222-4.617.456-9.483,2.555-13.783.029-.067.057-.124.087-.191q.334-.695.7-1.383c1.973-3.884,4.114-7.756,4.681-12.053l.006-.035a18.18,18.18,0,0,0,.142-1.847c.138-4.354-1.075-8.71-1.453-13.082a31.118,31.118,0,0,1-.109-3.547c.006-.652.039-1.309.092-1.971a35.12,35.12,0,0,1,3.067-11.734c.252-.574.528-1.134.821-1.683a34.028,34.028,0,0,1,7.975-10.147c.063-.052.117-.105.18-.157.2.732.4,1.457.625,2.177a54.95,54.95,0,0,0,2.78,7.189c.275.584.552,1.152.847,1.722a55.6,55.6,0,0,0,5.653,8.9c.38.5.77.984,1.161,1.464a55.46,55.46,0,0,0,5.681,5.9c1.751,1.566,3.658,3.115,5.374,4.783.429.415.848.837,1.249,1.264a14.907,14.907,0,0,1,4.011,7.161,12.148,12.148,0,0,1,.2,3.142,16.463,16.463,0,0,1-.512,3.053c-1.371,5.42-4.953,10.735-4.812,16.417a14.013,14.013,0,0,0,.622,3.788,15.528,15.528,0,0,0,.654,1.806c1.751,4.145,5,7.852,7.67,11.718.343.5.678.995.993,1.5.008.01.008.01.006.019a36.409,36.409,0,0,1,5.362,22.123c-.052.815-.137,1.615-.25,2.419A35.364,35.364,0,0,1,701.653,475.468Z" fill="#fcd77c"/>
          <path id="Path_189" data-name="Path 189" d="M706.224,462.3,687.5,476.619a9.012,9.012,0,0,1-2.761,1.616c-.086.5-.172.991-.267,1.484a88.919,88.919,0,0,1-3.222,11.7c-1.817,5.307-3.994,10.471-6.136,15.534l-1.625-.694c1.959-4.629,3.952-9.351,5.658-14.176a91.173,91.173,0,0,0,3.593-12.7c.065-.32.112-.643.176-.963-.2-.018-.4-.035-.6-.068a13.164,13.164,0,0,1-1.9-.518l-24.185-7.88q.241-.845.508-1.684l24.219,7.886a8.76,8.76,0,0,0,2.238.514,48.6,48.6,0,0,0-.489-18.574l-21.708-4.2c.1-.582.176-1.169.232-1.75l20.981,4.055a35.445,35.445,0,0,0-1.615-4.416c-.765-1.727-1.712-3.44-2.616-5.092a61.945,61.945,0,0,1-3.036-6.079l-21.043-6.483c-.609-.769-1.188-1.559-1.711-2.366l22,6.766c-.181-.56-.342-1.125-.476-1.694-1.028-4.494-.454-9.041.409-13.493l-21.4-9.761c.029-.067.057-.124.087-.191q.334-.695.7-1.383l20.974,9.56c.1-.475.2-.941.3-1.407a55.409,55.409,0,0,0,1.594-11.7c-.015-.531-.039-1.063-.081-1.6l-18.1-6.939a18.18,18.18,0,0,0,.142-1.847l17.752,6.817c-.7-5.029-2.627-9.929-4.6-14.56l-.273-.647-14.443-8.239c.006-.652.039-1.309.092-1.971L670.084,387a63.108,63.108,0,0,1-4.4-13.506l-5.743-5.752c.252-.574.528-1.134.821-1.683l4.528,4.546a22.787,22.787,0,0,1,3.447-14.693c.063-.052.117-.105.18-.157.2.732.4,1.457.625,2.177a22.038,22.038,0,0,0-2.368,13.735c.017.11.042.222.059.332a77.416,77.416,0,0,1,5.089-6.878c.275.584.552,1.152.847,1.722a78.581,78.581,0,0,0-5.261,7.351l-.221.346a69.009,69.009,0,0,0,4.14,12.045l6.995-10.845c.38.5.77.984,1.161,1.464l-7.324,11.343.464,1.092a62.718,62.718,0,0,1,4.641,14.469l13.274-16.219c.429.415.848.837,1.249,1.264l-14.24,17.395c.052.627.086,1.259.093,1.887a52.8,52.8,0,0,1-1.5,11.477l19.857-20.456a16.463,16.463,0,0,1-.512,3.053l-20.01,20.618c-.91,4.57-1.527,8.948-.522,13.313a19.365,19.365,0,0,0,.576,2q7.629-8.049,15.766-15.724a15.528,15.528,0,0,0,.654,1.806q-8.1,7.672-15.727,15.749c.8,1.876,1.794,3.7,2.819,5.575.924,1.691,1.884,3.434,2.683,5.229a36.266,36.266,0,0,1,1.694,4.627c5.157-6.652,10.567-13.161,16.2-19.462.343.5.678.995.993,1.5.008.01.008.01.006.019-5.794,6.505-11.358,13.23-16.635,20.1a50.312,50.312,0,0,1,.591,18.3,13.3,13.3,0,0,0,1.362-.936l20.044-15.348C706.422,460.691,706.337,461.491,706.224,462.3Z" fill="#eaab4e"/>
        </g>
      </g>
      <g id="Group_115" data-name="Group 115">
        <g id="Group_113" data-name="Group 113">
          <path id="Path_190" data-name="Path 190" d="M590.4,115.683a9.147,9.147,0,0,1-2.435,1.946,16.745,16.745,0,0,1-8.994,1.672,35.4,35.4,0,0,1-28.432-17.612,2.232,2.232,0,0,0,.225.139c3.349,2.148,7.556,2.531,11.557,2.428,4.079-.114,8.2-.661,12.236-.03s8.137,2.711,9.87,6.416Z" fill="#ffebd7"/>
          <path id="Path_191" data-name="Path 191" d="M587.965,117.629a16.745,16.745,0,0,1-8.994,1.672,35.4,35.4,0,0,1-28.432-17.612,2.232,2.232,0,0,0,.225.139,26.726,26.726,0,0,0,10.613,6.432c4.2,1.326,8.64,1.585,12.954,2.474s8.7,2.559,11.457,5.985l2.007.741A1.935,1.935,0,0,1,587.965,117.629Z" fill="#efd6bf"/>
        </g>
        <path id="Path_192" data-name="Path 192" d="M616.784,132.782l-10.611.47L582.034,119a10.641,10.641,0,0,0,2.7-5.484,5.059,5.059,0,0,0-.958-3.869l27.91,5.622,3.745,2.982,4,8.057-1.246,3.041Z" fill="#ffce84"/>
        <path id="Path_193" data-name="Path 193" d="M616.784,132.782l-10.611.47L582.034,119a10.641,10.641,0,0,0,2.7-5.484q12.124,5.163,23.92,10.986c3.2,1.585,6.377,3.191,9.535,4.847Z" fill="#f4b060"/>
        <g id="Group_114" data-name="Group 114">
          <path id="Path_194" data-name="Path 194" d="M719.991,172.322a4.125,4.125,0,0,0,.082-1.478,8.677,8.677,0,0,0-2.369-4.56,27.556,27.556,0,0,0-5.89-4.411,481.133,481.133,0,0,0-100.129-46.6,31.3,31.3,0,0,1-5.514,17.983c1.1.692,2.169,1.367,3.154,2,7.448,4.811,15.12,9.253,22.939,13.333A279.248,279.248,0,0,0,681,168.418a253.175,253.175,0,0,0,28.178,6.7C713.586,175.9,719.088,175.984,719.991,172.322Z" fill="#965c30"/>
          <path id="Path_195" data-name="Path 195" d="M719.991,172.322a4.125,4.125,0,0,0,.082-1.478,264.678,264.678,0,0,1-110.095-45.159,33.921,33.921,0,0,1-3.807,7.57c1.1.692,2.169,1.367,3.154,2,7.448,4.811,15.12,9.253,22.939,13.333A279.248,279.248,0,0,0,681,168.418a253.175,253.175,0,0,0,28.178,6.7C713.586,175.9,719.088,175.984,719.991,172.322Z" fill="#7f4925"/>
        </g>
        <path id="Path_196" data-name="Path 196" d="M667.245,141.39c2.413,1.42,4.88,2.959,6.42,5.3l-43.039-19.823q-5.452-2.511-10.9-5.022c-1.336-.613-2.454-1.759-.3-1.516a27.878,27.878,0,0,1,5.186,1.664q10.465,3.5,20.554,8.011A224.486,224.486,0,0,1,667.245,141.39Z" fill="#ad6f44"/>
        <path id="Path_197" data-name="Path 197" d="M679.8,148.081a278.554,278.554,0,0,0,32.5,17c-3.533-2.666-6.916-5.714-11-7.5-4.532-1.978-8.79-4.521-13.364-6.441C685.391,150.077,682.148,149.47,679.8,148.081Z" fill="#ad6f44"/>
        <path id="Path_198" data-name="Path 198" d="M609.347,117.131a119.34,119.34,0,0,0-23.4-5.213,152.9,152.9,0,0,0,24.99,7.812" fill="#ffdaa9"/>
      </g>
      <g id="Group_126" data-name="Group 126">
        <g id="Group_116" data-name="Group 116">
          <path id="Path_199" data-name="Path 199" d="M403.611,430.895a8.678,8.678,0,1,0,15.685-1.333,8.689,8.689,0,0,1-14.549,2.9A8.229,8.229,0,0,1,403.611,430.895Z" fill="#eda558"/>
          <path id="Path_200" data-name="Path 200" d="M405.887,427.476a8.538,8.538,0,0,0-2.276,3.419,8.229,8.229,0,0,0,1.136,1.565,8.689,8.689,0,0,0,14.549-2.9,8.217,8.217,0,0,0-1.143-1.572A8.685,8.685,0,0,0,405.887,427.476Z" fill="#fcd77c"/>
        </g>
        <g id="Group_117" data-name="Group 117">
          <path id="Path_201" data-name="Path 201" d="M375.664,454.508c-2.006-4.879-.07-11.479,5.451-18.584,5.379-6.922,13.564-13.552,23.049-18.668,19.772-10.669,39.157-11.316,43.222-1.443,2.006,4.88.071,11.48-5.451,18.586-5.379,6.922-13.563,13.551-23.048,18.668-17.723,9.562-35.138,11.073-41.482,4.174A9.166,9.166,0,0,1,375.664,454.508Zm29.182-35.592c-9.182,4.954-17.085,11.344-22.252,17.993-5.024,6.466-6.832,12.363-5.087,16.606,3.683,8.957,21.941,8.011,40.7-2.109,9.182-4.954,17.085-11.343,22.252-17.992,5.024-6.467,6.831-12.364,5.086-16.607a7.953,7.953,0,0,0-1.513-2.374C438.232,408.128,421.742,409.8,404.846,418.916Z" fill="#ffebe1"/>
        </g>
        <g id="Group_118" data-name="Group 118">
          <path id="Path_202" data-name="Path 202" d="M417.528,475.416c-5.184.169-10.652-3.946-15.4-11.586-4.623-7.443-8.043-17.4-9.631-28.05-3.311-22.2,2.528-40.527,13.02-40.874,5.185-.169,10.653,3.946,15.4,11.586,4.623,7.443,8.043,17.4,9.63,28.05,2.968,19.9-1.417,36.689-9.912,40.2A8.807,8.807,0,0,1,417.528,475.416Zm-23.264-39.693c1.538,10.307,4.83,19.921,9.27,27.07,4.319,6.953,9.178,10.7,13.686,10.555,9.518-.31,14.706-17.693,11.566-38.749-1.538-10.307-4.83-19.921-9.27-27.07-4.319-6.953-9.18-10.7-13.688-10.554a7.644,7.644,0,0,0-2.7.583C395.364,400.77,391.435,416.756,394.264,435.723Z" fill="#ffebe1"/>
        </g>
        <g id="Group_119" data-name="Group 119">
          <path id="Path_203" data-name="Path 203" d="M447.21,454.758c-3.006,4.255-9.593,6.14-18.549,5.309-8.726-.81-18.728-4.11-28.165-9.293-19.677-10.8-30.735-26.6-24.657-35.208,3.005-4.255,9.593-6.141,18.55-5.31,8.725.81,18.727,4.109,28.165,9.292,17.637,9.685,28.351,23.379,26,32.314A8.908,8.908,0,0,1,447.21,454.758Zm-45.692-5.431c9.137,5.017,18.785,8.21,27.167,8.988,8.15.755,14.078-.864,16.691-4.564,5.518-7.811-5.18-22.506-23.845-32.755-9.137-5.018-18.785-8.21-27.167-8.988-8.15-.756-14.078.865-16.692,4.565a7.749,7.749,0,0,0-1.171,2.517C374.357,427.256,384.7,440.094,401.518,449.327Z" fill="#ffebe1"/>
        </g>
        <g id="Group_120" data-name="Group 120">
          <path id="Path_204" data-name="Path 204" d="M438.981,453.038a8.678,8.678,0,1,0,15.685-1.333,8.689,8.689,0,0,1-14.549,2.9A8.23,8.23,0,0,1,438.981,453.038Z" fill="#9061af"/>
          <path id="Path_205" data-name="Path 205" d="M441.257,449.619a8.539,8.539,0,0,0-2.276,3.419,8.23,8.23,0,0,0,1.136,1.565,8.689,8.689,0,0,0,14.549-2.9,8.249,8.249,0,0,0-1.143-1.572A8.685,8.685,0,0,0,441.257,449.619Z" fill="#ab7bc6"/>
        </g>
        <g id="Group_121" data-name="Group 121">
          <path id="Path_206" data-name="Path 206" d="M437.287,413.506a8.677,8.677,0,1,0,15.684-1.334,8.688,8.688,0,0,1-14.548,2.9A8.169,8.169,0,0,1,437.287,413.506Z" fill="#6088a0"/>
          <path id="Path_207" data-name="Path 207" d="M439.563,410.086a8.524,8.524,0,0,0-2.276,3.42,8.169,8.169,0,0,0,1.136,1.564,8.688,8.688,0,0,0,14.548-2.9,8.206,8.206,0,0,0-1.143-1.572A8.683,8.683,0,0,0,439.563,410.086Z" fill="#7096b2"/>
        </g>
        <g id="Group_122" data-name="Group 122">
          <path id="Path_208" data-name="Path 208" d="M395.977,395.395a8.677,8.677,0,1,0,15.685-1.333,8.69,8.69,0,0,1-14.549,2.9A8.261,8.261,0,0,1,395.977,395.395Z" fill="#b3c66d"/>
          <path id="Path_209" data-name="Path 209" d="M398.253,391.976a8.532,8.532,0,0,0-2.276,3.419,8.261,8.261,0,0,0,1.136,1.565,8.69,8.69,0,0,0,14.549-2.9,8.222,8.222,0,0,0-1.143-1.573A8.685,8.685,0,0,0,398.253,391.976Z" fill="#c6db8d"/>
        </g>
        <g id="Group_123" data-name="Group 123">
          <path id="Path_210" data-name="Path 210" d="M368.015,418.608a8.677,8.677,0,1,0,15.684-1.333,8.689,8.689,0,0,1-14.548,2.9A8.142,8.142,0,0,1,368.015,418.608Z" fill="#8dc6c1"/>
          <path id="Path_211" data-name="Path 211" d="M370.291,415.189a8.528,8.528,0,0,0-2.276,3.419,8.142,8.142,0,0,0,1.136,1.565,8.689,8.689,0,0,0,14.548-2.9,8.182,8.182,0,0,0-1.143-1.573A8.684,8.684,0,0,0,370.291,415.189Z" fill="#afd7dd"/>
        </g>
        <g id="Group_124" data-name="Group 124">
          <path id="Path_212" data-name="Path 212" d="M372.335,453.225a8.678,8.678,0,1,0,15.685-1.333,8.69,8.69,0,0,1-14.549,2.9A8.187,8.187,0,0,1,372.335,453.225Z" fill="#e2883d"/>
          <path id="Path_213" data-name="Path 213" d="M374.611,449.806a8.538,8.538,0,0,0-2.276,3.419,8.187,8.187,0,0,0,1.136,1.565,8.69,8.69,0,0,0,14.549-2.9,8.23,8.23,0,0,0-1.144-1.573A8.684,8.684,0,0,0,374.611,449.806Z" fill="#f7a357"/>
        </g>
        <g id="Group_125" data-name="Group 125">
          <path id="Path_214" data-name="Path 214" d="M408.163,468.872a8.678,8.678,0,1,0,15.685-1.333,8.689,8.689,0,0,1-14.549,2.9A8.187,8.187,0,0,1,408.163,468.872Z" fill="#c14c30"/>
          <path id="Path_215" data-name="Path 215" d="M410.439,465.453a8.538,8.538,0,0,0-2.276,3.419,8.187,8.187,0,0,0,1.136,1.565,8.689,8.689,0,0,0,14.549-2.9,8.248,8.248,0,0,0-1.143-1.572A8.685,8.685,0,0,0,410.439,465.453Z" fill="#d36240"/>
        </g>
      </g>
      <g id="Group_210" data-name="Group 210">
        <g id="Group_132" data-name="Group 132">
          <g id="Group_127" data-name="Group 127">
            <path id="Path_216" data-name="Path 216" d="M492.86,248.236a28.979,28.979,0,0,0-8.1-5.991l.892-1.79a31.014,31.014,0,0,1,8.663,6.4Z" fill="#ffebe1"/>
          </g>
          <g id="Group_128" data-name="Group 128">
            <rect id="Rectangle_4" data-name="Rectangle 4" width="10.692" height="2" transform="translate(487.068 248.956) rotate(-75.515)" fill="#ffebe1"/>
          </g>
          <g id="Group_129" data-name="Group 129">
            <rect id="Rectangle_5" data-name="Rectangle 5" width="6.939" height="2" transform="translate(495.261 240.471) rotate(-17.268)" fill="#ffebe1"/>
          </g>
          <g id="Group_130" data-name="Group 130">
            <rect id="Rectangle_6" data-name="Rectangle 6" width="2" height="6.884" transform="matrix(0.97, -0.241, 0.241, 0.97, 498.109, 237.607)" fill="#ffebe1"/>
          </g>
          <g id="Group_131" data-name="Group 131">
            <path id="Path_217" data-name="Path 217" d="M503.775,251.548q-.674,0-1.388-.044l.123-2a13.962,13.962,0,0,0,5.571-.621,7.377,7.377,0,0,0,4.071-3.245,8.19,8.19,0,0,0,.568-5.659q-.06-.276-.132-.549a3.879,3.879,0,0,1-3.047,2.34,4.231,4.231,0,0,1-4.168-3.006,10.349,10.349,0,0,1-.216-4.609l1.988.216a8.7,8.7,0,0,0,.117,3.732c.312.9,1.185,1.777,2.078,1.676a2.292,2.292,0,0,0,1.7-2.072,8.8,8.8,0,0,0-.666-3.691l1.849-.752a28.187,28.187,0,0,1,2.454,6.29,10.17,10.17,0,0,1-.772,7.051,9.365,9.365,0,0,1-5.152,4.163A14.743,14.743,0,0,1,503.775,251.548Z" fill="#ffebe1"/>
          </g>
        </g>
        <g id="Group_137" data-name="Group 137">
          <g id="Group_133" data-name="Group 133">
            <path id="Path_218" data-name="Path 218" d="M639.168,269.208l-4.244-10.768,1.861-.733,2.608,6.616,9.869-19.552L671,253.247c1.42.554,3.363,1.312,4.409,3.023,1.835,3-.182,6.537-1.86,8.933l-1.639-1.146c2.154-3.078,2.724-5.22,1.792-6.744-.641-1.05-1.932-1.619-3.429-2.2l-20.041-7.815Z" fill="#ffebe1"/>
          </g>
          <g id="Group_134" data-name="Group 134">
            <path id="Path_219" data-name="Path 219" d="M654.554,267.354l-9.907-2.961,8.947-11.761,1.592,1.211-7.2,9.461,7.139,2.134Z" fill="#ffebe1"/>
          </g>
          <g id="Group_135" data-name="Group 135">
            <rect id="Rectangle_7" data-name="Rectangle 7" width="10.821" height="2" transform="matrix(0.349, -0.937, 0.937, 0.349, 650.632, 272.043)" fill="#ffebe1"/>
          </g>
          <g id="Group_136" data-name="Group 136">
            <path id="Path_220" data-name="Path 220" d="M657.912,274.632l-1.6-1.2,5.491-7.3h-.011a4.718,4.718,0,0,1-3.712-1.763,5.182,5.182,0,0,1,.171-6.308,5.917,5.917,0,0,1,5.967-1.875,4.4,4.4,0,0,1,3.278,2.9c.567,2.048-.855,3.942-1.619,4.959Zm4.85-16.63a3.846,3.846,0,0,0-2.958,1.318,3.184,3.184,0,0,0-.14,3.821,2.678,2.678,0,0,0,3.492.572l.231.312.893-1.188c.772-1.027,1.572-2.208,1.29-3.223a2.5,2.5,0,0,0-1.843-1.493A3.894,3.894,0,0,0,662.762,258Z" fill="#ffebe1"/>
          </g>
        </g>
        <g id="Group_143" data-name="Group 143">
          <g id="Group_138" data-name="Group 138">
            <path id="Path_221" data-name="Path 221" d="M572.687,178.2l11.364-46.194,1.941.478L575.485,175.2a406.113,406.113,0,0,1,41.364-10.766l.4,1.959a404.205,404.205,0,0,0-42.855,11.256Z" fill="#ffebe1"/>
          </g>
          <g id="Group_139" data-name="Group 139">
            <path id="Path_222" data-name="Path 222" d="M586.066,137.073l-1.211-4.014-4.489,2.952-1.1-1.671,4.908-3.227a1.511,1.511,0,0,1,2.464.934l1.341,4.448Z" fill="#ffebe1"/>
          </g>
          <g id="Group_140" data-name="Group 140">
            <path id="Path_223" data-name="Path 223" d="M615.164,171.59l-1.793-.884,2.648-5.368a16.225,16.225,0,0,0-4.238-1.83l.524-1.93a18.171,18.171,0,0,1,5.57,2.584l.712.49Z" fill="#ffebe1"/>
          </g>
          <g id="Group_141" data-name="Group 141">
            <path id="Path_224" data-name="Path 224" d="M584.726,172.385a8.1,8.1,0,0,0-7.157-7.259l.223-1.987a10.1,10.1,0,0,1,8.924,9.051Z" fill="#ffebe1"/>
          </g>
          <g id="Group_142" data-name="Group 142">
            <path id="Path_225" data-name="Path 225" d="M586.877,163.655c-.059,0-.117,0-.176,0a3.853,3.853,0,0,1-3.74-3.111,3.915,3.915,0,0,1,2.495-3.863,8.015,8.015,0,0,1,4.1-.358,31.307,31.307,0,0,1,3.677.633,13.671,13.671,0,0,0,1.9-4.182l1.935.505a15.625,15.625,0,0,1-1.812,4.224,31.155,31.155,0,0,1,4.393,1.721l-.867,1.8a29.214,29.214,0,0,0-4.749-1.8,15.6,15.6,0,0,1-3.136,2.932A7.05,7.05,0,0,1,586.877,163.655Zm1.109-5.436a4.483,4.483,0,0,0-1.751.3,1.953,1.953,0,0,0-1.29,1.776,1.879,1.879,0,0,0,1.828,1.357,4.99,4.99,0,0,0,2.973-1.134,13.471,13.471,0,0,0,2.094-1.821q-1.244-.249-2.511-.391A12.354,12.354,0,0,0,587.986,158.219Z" fill="#ffebe1"/>
          </g>
        </g>
        <g id="Group_148" data-name="Group 148">
          <g id="Group_144" data-name="Group 144">
            <path id="Path_226" data-name="Path 226" d="M442.645,194.763a30.754,30.754,0,0,1-5.847-19.245c.134-3.367,1.354-5.622,3.438-6.348,1.982-.69,4.255.191,6.407,2.48a25.259,25.259,0,0,1,6.777,15.541l-2,.136a23.569,23.569,0,0,0-6.239-14.307c-.735-.782-2.626-2.543-4.291-1.961-1.755.611-2.052,3.377-2.1,4.538a28.747,28.747,0,0,0,5.467,17.988Z" fill="#ffebe1"/>
          </g>
          <g id="Group_145" data-name="Group 145">
            <rect id="Rectangle_8" data-name="Rectangle 8" width="11.839" height="2.001" transform="translate(439.059 184.05) rotate(-33.41)" fill="#ffebe1"/>
          </g>
          <g id="Group_146" data-name="Group 146">
            <path id="Path_227" data-name="Path 227" d="M459.3,184.112a2.8,2.8,0,0,1-1.663-.524,4.446,4.446,0,0,1-1.294-1.714l-7.088-13.984,1.783-.9L454.8,174.4a5.063,5.063,0,0,1,4.616-2.2,5.723,5.723,0,0,1,4.819,4.329,6.676,6.676,0,0,1-1.806,6.142A4.582,4.582,0,0,1,459.3,184.112Zm-3.523-7.776,2.349,4.634a2.857,2.857,0,0,0,.675.992c.553.4,1.57-.049,2.194-.689a4.728,4.728,0,0,0,1.292-4.279,3.723,3.723,0,0,0-3.064-2.8,2.991,2.991,0,0,0-3.134,2.207Z" fill="#ffebe1"/>
          </g>
          <g id="Group_147" data-name="Group 147">
            <path id="Path_228" data-name="Path 228" d="M469.842,178.09a6.059,6.059,0,0,1-5.494-3.806,6.9,6.9,0,0,1,1.607-7.186,8.32,8.32,0,0,1,6.922-2.292l-.24,1.986a6.394,6.394,0,0,0-5.255,1.707,4.933,4.933,0,0,0-1.169,5.062,3.971,3.971,0,0,0,4.169,2.481c1.994-.357,3.326-2.407,3.908-4.207l1.9.615c-.984,3.046-3.024,5.125-5.457,5.561A4.966,4.966,0,0,1,469.842,178.09Z" fill="#ffebe1"/>
          </g>
        </g>
        <g id="Group_159" data-name="Group 159">
          <g id="Group_149" data-name="Group 149">
            <rect id="Rectangle_9" data-name="Rectangle 9" width="2" height="8.955" transform="matrix(0.597, -0.802, 0.802, 0.597, 493.361, 54.299)" fill="#ffebe1"/>
          </g>
          <g id="Group_150" data-name="Group 150">
            <rect id="Rectangle_10" data-name="Rectangle 10" width="2" height="6.143" transform="translate(503.369 62.172) rotate(-37.189)" fill="#ffebe1"/>
          </g>
          <g id="Group_151" data-name="Group 151">
            <rect id="Rectangle_11" data-name="Rectangle 11" width="2" height="7.453" transform="matrix(0.911, -0.412, 0.412, 0.911, 511.109, 72.247)" fill="#ffebe1"/>
          </g>
          <g id="Group_152" data-name="Group 152">
            <rect id="Rectangle_12" data-name="Rectangle 12" width="2" height="6.125" transform="matrix(0.981, -0.196, 0.196, 0.981, 515.972, 82.777)" fill="#ffebe1"/>
          </g>
          <g id="Group_153" data-name="Group 153">
            <rect id="Rectangle_13" data-name="Rectangle 13" width="7.288" height="2" transform="translate(518.092 102.413) rotate(-89.805)" fill="#ffebe1"/>
          </g>
          <g id="Group_154" data-name="Group 154">
            <rect id="Rectangle_14" data-name="Rectangle 14" width="8.152" height="2.001" transform="matrix(0.288, -0.958, 0.958, 0.288, 515.232, 115.413)" fill="#ffebe1"/>
          </g>
          <g id="Group_155" data-name="Group 155">
            <rect id="Rectangle_15" data-name="Rectangle 15" width="7.813" height="2" transform="matrix(0.498, -0.867, 0.867, 0.498, 509.593, 127.442)" fill="#ffebe1"/>
          </g>
          <g id="Group_156" data-name="Group 156">
            <rect id="Rectangle_16" data-name="Rectangle 16" width="7.081" height="2" transform="translate(503.655 136.469) rotate(-54.495)" fill="#ffebe1"/>
          </g>
          <g id="Group_157" data-name="Group 157">
            <rect id="Rectangle_17" data-name="Rectangle 17" width="6.717" height="2" transform="translate(495.517 147.094) rotate(-54.64)" fill="#ffebe1"/>
          </g>
          <g id="Group_158" data-name="Group 158">
            <path id="Path_229" data-name="Path 229" d="M490.8,155.706l-.354-13.443,2-.053.287,10.924,8.042-2.1.506,1.936Z" fill="#ffebe1"/>
          </g>
        </g>
        <g id="Group_173" data-name="Group 173">
          <g id="Group_160" data-name="Group 160">
            <rect id="Rectangle_18" data-name="Rectangle 18" width="6.832" height="2" transform="translate(689.189 179.25) rotate(-17.912)" fill="#ffebe1"/>
          </g>
          <g id="Group_161" data-name="Group 161">
            <rect id="Rectangle_19" data-name="Rectangle 19" width="5.416" height="2" transform="translate(679.042 184.631) rotate(-35.241)" fill="#ffebe1"/>
          </g>
          <g id="Group_162" data-name="Group 162">
            <rect id="Rectangle_20" data-name="Rectangle 20" width="8.333" height="1.999" transform="matrix(0.627, -0.779, 0.779, 0.627, 669.89, 194.892)" fill="#ffebe1"/>
          </g>
          <g id="Group_163" data-name="Group 163">
            <rect id="Rectangle_21" data-name="Rectangle 21" width="4.546" height="2" transform="matrix(0.401, -0.916, 0.916, 0.401, 665.687, 204.828)" fill="#ffebe1"/>
          </g>
          <g id="Group_164" data-name="Group 164">
            <rect id="Rectangle_22" data-name="Rectangle 22" width="7.307" height="2.001" transform="translate(663.24 220.514) rotate(-85.999)" fill="#ffebe1"/>
          </g>
          <g id="Group_165" data-name="Group 165">
            <rect id="Rectangle_23" data-name="Rectangle 23" width="1.999" height="6.38" transform="translate(664.845 225.735) rotate(-11.763)" fill="#ffebe1"/>
          </g>
          <g id="Group_166" data-name="Group 166">
            <rect id="Rectangle_24" data-name="Rectangle 24" width="2" height="5.007" transform="translate(670.405 237.712) rotate(-27.899)" fill="#ffebe1"/>
          </g>
          <g id="Group_167" data-name="Group 167">
            <rect id="Rectangle_25" data-name="Rectangle 25" width="2.001" height="4.842" transform="matrix(0.806, -0.591, 0.591, 0.806, 677.51, 246.685)" fill="#ffebe1"/>
          </g>
          <g id="Group_168" data-name="Group 168">
            <rect id="Rectangle_26" data-name="Rectangle 26" width="1.999" height="5.82" transform="matrix(0.889, -0.458, 0.458, 0.889, 683.514, 254.048)" fill="#ffebe1"/>
          </g>
          <g id="Group_169" data-name="Group 169">
            <rect id="Rectangle_27" data-name="Rectangle 27" width="7.307" height="2.001" transform="translate(687.243 271.014) rotate(-86.028)" fill="#ffebe1"/>
          </g>
          <g id="Group_170" data-name="Group 170">
            <rect id="Rectangle_28" data-name="Rectangle 28" width="4.89" height="2" transform="translate(683.767 280.611) rotate(-65.663)" fill="#ffebe1"/>
          </g>
          <g id="Group_171" data-name="Group 171">
            <rect id="Rectangle_29" data-name="Rectangle 29" width="7.564" height="2" transform="translate(676.009 287.981) rotate(-42.069)" fill="#ffebe1"/>
          </g>
          <g id="Group_172" data-name="Group 172">
            <path id="Path_230" data-name="Path 230" d="M679.758,296.328l-9.917-2.368L674.4,280.7l1.891.65-3.84,11.179,7.774,1.856Z" fill="#ffebe1"/>
          </g>
        </g>
        <g id="Group_184" data-name="Group 184">
          <g id="Group_174" data-name="Group 174">
            <path id="Path_231" data-name="Path 231" d="M691.716,135.89a14.742,14.742,0,0,1-8.468-4.335l1.439-1.389A12.741,12.741,0,0,0,692,133.911Z" fill="#ffebe1"/>
          </g>
          <g id="Group_175" data-name="Group 175">
            <path id="Path_232" data-name="Path 232" d="M679.563,126.753a6.667,6.667,0,0,1-2.606-7.732l1.873.7a4.665,4.665,0,0,0,1.8,5.34Z" fill="#ffebe1"/>
          </g>
          <g id="Group_176" data-name="Group 176">
            <path id="Path_233" data-name="Path 233" d="M676.156,117.324a9.493,9.493,0,0,1-.744-9.312l1.807.859a7.559,7.559,0,0,0,.584,7.319Z" fill="#ffebe1"/>
          </g>
          <g id="Group_177" data-name="Group 177">
            <path id="Path_234" data-name="Path 234" d="M674.958,102.81a7.574,7.574,0,0,1,.425-6.329l1.752.966a5.545,5.545,0,0,0-.312,4.64Z" fill="#ffebe1"/>
          </g>
          <g id="Group_178" data-name="Group 178">
            <rect id="Rectangle_30" data-name="Rectangle 30" width="1.999" height="5.186" transform="translate(672.602 85.556) rotate(-17.176)" fill="#ffebe1"/>
          </g>
          <g id="Group_179" data-name="Group 179">
            <rect id="Rectangle_31" data-name="Rectangle 31" width="2" height="3.753" transform="translate(667.594 75.642) rotate(-33.693)" fill="#ffebe1"/>
          </g>
          <g id="Group_180" data-name="Group 180">
            <rect id="Rectangle_32" data-name="Rectangle 32" width="2" height="5.167" transform="matrix(0.654, -0.757, 0.757, 0.654, 660.236, 67.5)" fill="#ffebe1"/>
          </g>
          <g id="Group_181" data-name="Group 181">
            <rect id="Rectangle_33" data-name="Rectangle 33" width="2" height="4.89" transform="translate(650.821 61.676) rotate(-64.796)" fill="#ffebe1"/>
          </g>
          <g id="Group_182" data-name="Group 182">
            <rect id="Rectangle_34" data-name="Rectangle 34" width="2" height="6.636" transform="translate(635.982 57.752) rotate(-79.25)" fill="#ffebe1"/>
          </g>
          <g id="Group_183" data-name="Group 183">
            <rect id="Rectangle_35" data-name="Rectangle 35" width="2" height="3.334" transform="matrix(0.784, -0.621, 0.621, 0.784, 626.385, 51.606)" fill="#ffebe1"/>
          </g>
        </g>
        <g id="Group_187" data-name="Group 187">
          <g id="Group_185" data-name="Group 185">
            <path id="Path_235" data-name="Path 235" d="M598.249,100.172a84.1,84.1,0,0,0-48.37-7.225l-.3-1.977a86.1,86.1,0,0,1,49.532,7.4Z" fill="#ffebe1"/>
          </g>
          <g id="Group_186" data-name="Group 186">
            <path id="Path_236" data-name="Path 236" d="M554.746,98.285,545.684,93.2l7.921-8.7,1.479,1.346-6.228,6.845,6.869,3.857Z" fill="#ffebe1"/>
          </g>
        </g>
        <g id="Group_191" data-name="Group 191">
          <g id="Group_188" data-name="Group 188">
            <path id="Path_237" data-name="Path 237" d="M574.192,356.8a4.377,4.377,0,0,1-1.3-8.583l.554,1.922a2.357,2.357,0,1,0,.133-.036l-.443-1.949a4.384,4.384,0,0,1,2.067,8.52A4.069,4.069,0,0,1,574.192,356.8Z" fill="#ffebe1"/>
          </g>
          <g id="Group_189" data-name="Group 189">
            <path id="Path_238" data-name="Path 238" d="M586.945,366.431a4.377,4.377,0,0,1-1.3-8.583l.554,1.922a2.373,2.373,0,1,0,.133-.035l-.443-1.951a4.385,4.385,0,0,1,2.067,8.521A4.071,4.071,0,0,1,586.945,366.431Z" fill="#ffebe1"/>
          </g>
          <g id="Group_190" data-name="Group 190">
            <rect id="Rectangle_36" data-name="Rectangle 36" width="25.142" height="1.999" transform="translate(573.656 367.605) rotate(-62.284)" fill="#ffebe1"/>
          </g>
        </g>
        <g id="Group_198" data-name="Group 198">
          <g id="Group_192" data-name="Group 192">
            <path id="Path_239" data-name="Path 239" d="M465.6,447.906l-1.952-.435a23.339,23.339,0,0,1,4.722-9.691l1.545,1.27A21.334,21.334,0,0,0,465.6,447.906Z" fill="#ffebe1"/>
          </g>
          <g id="Group_193" data-name="Group 193">
            <rect id="Rectangle_37" data-name="Rectangle 37" width="5.549" height="2.001" transform="matrix(0.552, -0.834, 0.834, 0.552, 470.36, 434.514)" fill="#ffebe1"/>
          </g>
          <g id="Group_194" data-name="Group 194">
            <rect id="Rectangle_38" data-name="Rectangle 38" width="7.893" height="2" transform="matrix(0.646, -0.764, 0.764, 0.646, 476.768, 426.167)" fill="#ffebe1"/>
          </g>
          <g id="Group_195" data-name="Group 195">
            <rect id="Rectangle_39" data-name="Rectangle 39" width="6.73" height="2.001" transform="matrix(0.751, -0.661, 0.661, 0.751, 484.031, 418.252)" fill="#ffebe1"/>
          </g>
          <g id="Group_196" data-name="Group 196">
            <rect id="Rectangle_40" data-name="Rectangle 40" width="6.186" height="2" transform="matrix(0.784, -0.621, 0.621, 0.784, 491.548, 411.551)" fill="#ffebe1"/>
          </g>
          <g id="Group_197" data-name="Group 197">
            <path id="Path_240" data-name="Path 240" d="M500.828,414.053l-1.982-.262a39.627,39.627,0,0,1,1.892-7.919l-8.427,1.34.017-1.762.9.009-.065-.408,10.7-1.7-.657,1.636A37.663,37.663,0,0,0,500.828,414.053Z" fill="#ffebe1"/>
          </g>
        </g>
        <g id="Group_209" data-name="Group 209">
          <g id="Group_199" data-name="Group 199">
            <rect id="Rectangle_41" data-name="Rectangle 41" width="10.486" height="2" transform="matrix(0.463, -0.886, 0.886, 0.463, 374.319, 391.082)" fill="#ffebe1"/>
          </g>
          <g id="Group_200" data-name="Group 200">
            <rect id="Rectangle_42" data-name="Rectangle 42" width="10.591" height="2" transform="matrix(0.667, -0.745, 0.745, 0.667, 362.941, 404.44)" fill="#ffebe1"/>
          </g>
          <g id="Group_201" data-name="Group 201">
            <rect id="Rectangle_43" data-name="Rectangle 43" width="6.96" height="2" transform="matrix(0.899, -0.437, 0.437, 0.899, 354.298, 408.598)" fill="#ffebe1"/>
          </g>
          <g id="Group_202" data-name="Group 202">
            <rect id="Rectangle_44" data-name="Rectangle 44" width="8.246" height="2.001" transform="matrix(0.954, -0.301, 0.301, 0.954, 339.682, 412.986)" fill="#ffebe1"/>
          </g>
          <g id="Group_203" data-name="Group 203">
            <rect id="Rectangle_45" data-name="Rectangle 45" width="11.582" height="2.001" transform="translate(324.91 418.874) rotate(-29.218)" fill="#ffebe1"/>
          </g>
          <g id="Group_204" data-name="Group 204">
            <rect id="Rectangle_46" data-name="Rectangle 46" width="8.443" height="2.001" transform="translate(316.158 426.994) rotate(-48.402)" fill="#ffebe1"/>
          </g>
          <g id="Group_205" data-name="Group 205">
            <rect id="Rectangle_47" data-name="Rectangle 47" width="2.808" height="2" transform="translate(312.04 433.253) rotate(-59.743)" fill="#ffebe1"/>
          </g>
          <g id="Group_206" data-name="Group 206">
            <rect id="Rectangle_48" data-name="Rectangle 48" width="7.108" height="2" transform="matrix(0.246, -0.969, 0.969, 0.246, 308.407, 445.007)" fill="#ffebe1"/>
          </g>
          <g id="Group_207" data-name="Group 207">
            <rect id="Rectangle_49" data-name="Rectangle 49" width="11.004" height="2" transform="translate(305.978 458.681) rotate(-82.705)" fill="#ffebe1"/>
          </g>
          <g id="Group_208" data-name="Group 208">
            <path id="Path_241" data-name="Path 241" d="M383.036,390.835l-1.982-.26a21.118,21.118,0,0,0-.458-7.834,1.3,1.3,0,0,0-.24-.591,1.813,1.813,0,0,1-.352.2l-7.353,3.583-.876-1.8,7.352-3.582a2.584,2.584,0,0,1,1.8-.309,2.549,2.549,0,0,1,1.611,2.008A23.115,23.115,0,0,1,383.036,390.835Z" fill="#ffebe1"/>
          </g>
        </g>
      </g>
    </g>
  </g>
</svg>
