<svg xmlns="http://www.w3.org/2000/svg" xmlns:xlink="http://www.w3.org/1999/xlink" width="389.319" height="344.892" viewBox="0 0 389.319 344.892">
  <defs>
    <linearGradient id="linear-gradient" x1="-0.009" y1="0.548" x2="0.991" y2="0.548" gradientUnits="objectBoundingBox">
      <stop offset="0" stop-color="#f2ded6"/>
      <stop offset="1" stop-color="#fff" stop-opacity="0"/>
    </linearGradient>
  </defs>
  <g id="Tools" transform="translate(-274.982 -68.725)">
    <g id="Group_7" data-name="Group 7">
      <g id="Group_5" data-name="Group 5">
        <path id="Path_3" data-name="Path 3" d="M398.337,261.382a9.882,9.882,0,0,0,2.093-.054,9.46,9.46,0,0,0,1.524-.325c8.182-2.5,16.15-7.466,19.656-15.6a24.29,24.29,0,0,0,1.927-10.158c-.016-.7-.067-1.406-.146-2.1a24.5,24.5,0,0,0-3.814-10.877c-.194-.3-.4-.6-.609-.886s-.407-.56-.621-.829c-2.5-3.265-5.651-6.473-5.393-10.507a1.768,1.768,0,0,1,.021-.213,7.675,7.675,0,0,1,.583-2.318c2.1-4.943,8.795-8.217,9.546-13.626a5.387,5.387,0,0,0,.062-.695,7.454,7.454,0,0,0-.064-1.321,15.088,15.088,0,0,0-2.675-5.891,32.32,32.32,0,0,1-2.655-4.406,9.754,9.754,0,0,1-.679-1.952c-.042-.2-.084-.408-.119-.619a8.47,8.47,0,0,1,2.121-6.578,12.311,12.311,0,0,1,2.154-2.065c.249-.192.505-.363.761-.534a34.548,34.548,0,0,1,9.22-4.078,7.3,7.3,0,0,1,3.157-.18,113.456,113.456,0,0,0-11.845-2.233,45.558,45.558,0,0,0-4.823-.352c-5.627-.093-11.427,1.037-16.085,4.209-.229.156-.443.312-.664.475-.56.407-1.105.842-1.627,1.3-3.022,2.6-5.6,5.757-8.858,8.049-.124.1-.256.185-.38.274-.422.29-.86.551-1.3.813-3.609,2.127-7.756,3.641-10.02,7.111a10.242,10.242,0,0,0-1.493,3.9,13.911,13.911,0,0,0-.16,2.248c.063,3.691,1.548,7.591,3.208,10.982a74.114,74.114,0,0,1,3.294,7.307q.422,1.2.73,2.41a13.818,13.818,0,0,1,.007,7.393,28.366,28.366,0,0,1-3.1,6.016c-.248.411-.482.822-.7,1.246-.087.166-.18.339-.259.511a23.425,23.425,0,0,0-.528,19.445c.123.307.26.6.4.9a16.969,16.969,0,0,0,.835,1.523C384.355,254.571,391.616,260.936,398.337,261.382Z" fill="#d36240"/>
        <path id="Path_4" data-name="Path 4" d="M405.946,272.787l1.251-1.569a21.624,21.624,0,0,1-6.767-9.89,36.143,36.143,0,0,1-1.873-8.648,10.565,10.565,0,0,0,3.852-2.941l.164-.161a61.38,61.38,0,0,1,20.964-14.329c-.016-.7-.067-1.406-.146-2.1A63.245,63.245,0,0,0,401.127,248.2l-.164.161a11.148,11.148,0,0,1-2.567,2.213c-.081-1.405-.088-2.714-.069-3.847.083-3.554.446-7.188.8-10.694.069-.689.138-1.392.208-2.08a47.874,47.874,0,0,1,20.243-11.674c-.194-.3-.4-.6-.609-.886s-.407-.56-.621-.829A49.9,49.9,0,0,0,399.6,230.976a68.5,68.5,0,0,0,.126-12.229c-.075-.783-.178-1.551-.288-2.326a68.114,68.114,0,0,1,13.539-6.581,7.675,7.675,0,0,1,.583-2.318,70.076,70.076,0,0,0-14.475,6.76c-.363-2.026-.789-4.028-1.221-5.995-.475-2.213-.966-4.468-1.336-6.72A83.408,83.408,0,0,1,423.1,193.9a5.387,5.387,0,0,0,.062-.695,7.454,7.454,0,0,0-.064-1.321,85.247,85.247,0,0,0-26.884,7.617,37.255,37.255,0,0,1-.321-5.741,28.875,28.875,0,0,1,1.051-6.841,60.647,60.647,0,0,1,20.824-5.332,9.754,9.754,0,0,1-.679-1.952,62.714,62.714,0,0,0-19.295,4.724,30.493,30.493,0,0,1,5.946-9.709,73.818,73.818,0,0,1,15.351-2.212,12.311,12.311,0,0,1,2.154-2.065,75.431,75.431,0,0,0-14.671,1.574,26.833,26.833,0,0,1,2.389-1.8,29.969,29.969,0,0,1,22.263-4.382,7.3,7.3,0,0,1,3.157-.18,113.456,113.456,0,0,0-11.845-2.233,31.613,31.613,0,0,0-14.69,5.133,30.415,30.415,0,0,0-4.863,4.078l-2.019-4.879c-.56.407-1.105.842-1.627,1.3l2.157,5.214a32.463,32.463,0,0,0-5.844,10.2l-5.171-7.366c-.124.1-.256.185-.38.274-.422.29-.86.551-1.3.813l6.113,8.716a30.281,30.281,0,0,0-1.021,6.867,37.11,37.11,0,0,0,.29,5.672L377.3,189.125a13.911,13.911,0,0,0-.16,2.248l17.422,10.555c.378,2.287.87,4.556,1.359,6.783.425,1.974.859,3.983,1.214,6l-13.493-5.051q.422,1.2.73,2.41l13.128,4.915c.084.655.176,1.3.24,1.952a75.336,75.336,0,0,1-.326,14.11q-.216.21-.433.418l-15.7-7.986c-.248.411-.482.822-.7,1.246-.087.166-.18.339-.259.511l16.826,8.558v.028c-.358,3.557-.72,7.219-.807,10.851-.029,1.274-.017,2.739.084,4.327a12.375,12.375,0,0,1-2.9-.528l-13.728-3.791c.123.307.26.6.4.9a16.969,16.969,0,0,0,.835,1.523l11.958,3.3a13.546,13.546,0,0,0,3.606.612,39.066,39.066,0,0,0,1.751,8.369A23.9,23.9,0,0,0,405.946,272.787Z" fill="#a54129"/>
      </g>
      <g id="Group_6" data-name="Group 6">
        <path id="Path_5" data-name="Path 5" d="M361.634,268.01a36.627,36.627,0,0,0,23.315,4.075c.743-.113,1.513-.249,2.317-.4.7-.136,1.423-.288,2.154-.471,5.836-1.4,12.247-4.06,14.852-9.068a15.107,15.107,0,0,0,.081-13.6,28.952,28.952,0,0,0-6.082-7.929q-.629-.612-1.279-1.208c-1.789-1.644-3.655-3.214-5.455-4.815a47.712,47.712,0,0,1-5.4-5.529c-.377-.455-.735-.926-1.073-1.4a18.5,18.5,0,0,1-3.6-8.752c-.385-3.487.475-7.022.986-10.52.146-.97.255-1.943.306-2.9a14.823,14.823,0,0,0-.43-4.826c-1.24-4.612-5.117-8-9.078-10.681l-.171-.122q-.636-.435-1.293-.853c-3.644-2.386-7.429-4.678-10.06-8.122l-.023-.027a18.508,18.508,0,0,1-1.042-1.531c-2.288-3.707-3.4-8.089-5.254-12.069a31.175,31.175,0,0,0-1.671-3.13c-.33-.563-.686-1.116-1.062-1.664a35.1,35.1,0,0,0-8.5-8.649c-.5-.372-1.023-.721-1.55-1.051a34.05,34.05,0,0,0-11.969-4.829c-.08-.013-.153-.033-.234-.047.2.733.379,1.464.542,2.2a55.073,55.073,0,0,1,1.169,7.619c.053.644.1,1.274.123,1.916a55.591,55.591,0,0,1-.473,10.53c-.083.619-.177,1.237-.278,1.847a55.366,55.366,0,0,1-1.988,7.947c-.739,2.231-1.621,4.524-2.279,6.824-.166.574-.319,1.148-.453,1.719a14.9,14.9,0,0,0,.086,8.207,12.148,12.148,0,0,0,1.393,2.823,16.42,16.42,0,0,0,1.965,2.393c3.887,4.018,9.64,6.843,12.347,11.842a14,14,0,0,1,1.346,3.6,15.572,15.572,0,0,1,.332,1.891c.546,4.467-.428,9.3-.817,13.981-.05.6-.092,1.2-.116,1.794,0,.012,0,.012.005.019a36.412,36.412,0,0,0,6.365,21.856c.451.68.923,1.332,1.421,1.973A35.373,35.373,0,0,0,361.634,268.01Z" fill="#fcd77c"/>
        <path id="Path_6" data-name="Path 6" d="M351.111,258.862l23.367,3.1a9.022,9.022,0,0,0,3.2.026c.322.387.643.774.971,1.155a89.175,89.175,0,0,0,8.619,8.54c4.218,3.7,8.677,7.092,13.055,10.416l1.064-1.411c-4-3.039-8.082-6.141-11.965-9.476a91.344,91.344,0,0,1-9.438-9.223c-.216-.246-.417-.5-.633-.748.168-.116.335-.232.484-.356a13.1,13.1,0,0,0,1.388-1.394l17.05-18.875q-.629-.612-1.279-1.208l-17.077,18.9a8.726,8.726,0,0,1-1.685,1.561,48.6,48.6,0,0,1-8.823-16.352l16.734-14.45c-.377-.455-.735-.926-1.073-1.4l-16.175,13.964a35.356,35.356,0,0,1-.8-4.634c-.2-1.879-.228-3.836-.267-5.719a61.837,61.837,0,0,0-.393-6.783l15.02-16.1c.146-.97.255-1.943.306-2.9l-15.707,16.819c-.122-.575-.263-1.146-.431-1.706-1.346-4.41-4.108-8.067-7.073-11.5l13.7-19.122-.171-.122q-.636-.435-1.293-.853L358.36,207.74l-.96-1.072a55.442,55.442,0,0,1-7.209-9.356c-.251-.468-.495-.941-.726-1.426l12.24-15.029a18.508,18.508,0,0,1-1.042-1.531l-12,14.75c-1.894-4.71-2.665-9.918-3.261-14.916l-.086-.7,8.424-14.336c-.33-.563-.686-1.116-1.062-1.664l-7.714,13.1a63.114,63.114,0,0,0-2.9-13.906l2.116-7.848c-.5-.372-1.023-.721-1.55-1.051l-1.663,6.2a22.786,22.786,0,0,0-10.306-11.027c-.08-.013-.153-.033-.234-.047.2.733.379,1.464.542,2.2a22.045,22.045,0,0,1,8.892,10.733c.041.1.075.214.115.318a77.145,77.145,0,0,0-7.838-3.432c.053.644.1,1.274.123,1.916a78.415,78.415,0,0,1,8.222,3.755l.364.19a69.084,69.084,0,0,1,2.408,12.507l-11.467-5.922c-.083.619-.177,1.237-.278,1.847l12,6.191.141,1.178a62.687,62.687,0,0,0,3.18,14.859l-19.588-7.457c-.166.574-.319,1.148-.453,1.719l21.01,7.995c.266.569.552,1.135.859,1.683a52.828,52.828,0,0,0,7.016,9.206l-27.406-7.854a16.42,16.42,0,0,0,1.965,2.393l27.619,7.918c3.064,3.509,5.779,7,7.08,11.285a19.228,19.228,0,0,1,.5,2.019c-7.083-2.121-14.271-4.051-21.5-5.785a15.572,15.572,0,0,1,.332,1.891q10.847,2.619,21.48,5.827c.238,2.027.285,4.1.331,6.239.041,1.927.076,3.916.278,5.87a36.272,36.272,0,0,0,.834,4.857c-7.784-3.2-15.717-6.153-23.74-8.812-.05.6-.092,1.2-.116,1.794,0,.012,0,.012.005.019,8.264,2.756,16.437,5.818,24.435,9.151a50.333,50.333,0,0,0,8.6,16.169,13.275,13.275,0,0,1-1.648-.134l-25.024-3.33C350.141,257.569,350.613,258.221,351.111,258.862Z" fill="#eaab4e"/>
      </g>
    </g>
    <g id="Group_10" data-name="Group 10">
      <g id="Group_8" data-name="Group 8">
        <path id="Path_7" data-name="Path 7" d="M558.481,316.628a9.871,9.871,0,0,0,.7,1.971,9.4,9.4,0,0,0,.784,1.348c4.921,7,12.116,13.029,20.933,13.834a24.292,24.292,0,0,0,10.254-1.327c.66-.233,1.315-.5,1.947-.791a24.489,24.489,0,0,0,9.153-7.006c.23-.279.441-.566.653-.854s.4-.561.594-.848c2.325-3.395,4.4-7.383,8.311-8.392a1.882,1.882,0,0,1,.209-.046,7.633,7.633,0,0,1,2.384-.167c5.349.455,10.544,5.8,15.918,4.837a5.371,5.371,0,0,0,.68-.157,7.57,7.57,0,0,0,1.236-.471,15.1,15.1,0,0,0,4.767-4.374,32.177,32.177,0,0,1,3.363-3.893,9.607,9.607,0,0,1,1.644-1.252c.181-.1.361-.207.551-.306a8.469,8.469,0,0,1,6.911-.029,12.306,12.306,0,0,1,2.633,1.4c.259.177.5.367.744.557a34.513,34.513,0,0,1,6.742,7.5,7.314,7.314,0,0,1,1.153,2.944,113.313,113.313,0,0,0-1.561-11.952,45.41,45.41,0,0,0-1.164-4.693c-1.661-5.377-4.538-10.539-9-13.98-.219-.169-.434-.324-.657-.483-.562-.406-1.144-.788-1.74-1.144-3.406-2.064-7.213-3.532-10.4-5.916-.137-.086-.256-.185-.379-.276-.406-.311-.791-.646-1.176-.98-3.143-2.769-5.872-6.239-9.873-7.313a10.256,10.256,0,0,0-4.175-.2,13.957,13.957,0,0,0-2.187.546c-3.488,1.208-6.733,3.832-9.44,6.464a74.055,74.055,0,0,1-5.921,5.4c-.671.515-1.36,1-2.064,1.443a13.812,13.812,0,0,1-7.025,2.305,28.4,28.4,0,0,1-6.681-1.078c-.468-.108-.931-.2-1.4-.28-.185-.031-.378-.066-.566-.087a23.429,23.429,0,0,0-18.646,5.543c-.253.213-.489.434-.729.664a16.775,16.775,0,0,0-1.187,1.266C560.608,301.221,556.815,310.1,558.481,316.628Z" fill="#d36240"/>
        <path id="Path_8" data-name="Path 8" d="M550.006,327.4l1.88.7a21.636,21.636,0,0,1,7.3-9.506,36.187,36.187,0,0,1,7.638-4.468,10.559,10.559,0,0,0,3.993,2.746l.2.107a61.392,61.392,0,0,1,20.136,15.47c.66-.233,1.315-.5,1.947-.791a63.229,63.229,0,0,0-21.219-16.483l-.2-.106a11.172,11.172,0,0,1-2.9-1.752c1.311-.514,2.552-.928,3.635-1.261,3.4-1.027,6.971-1.811,10.413-2.566l2.041-.449a47.892,47.892,0,0,1,17.389,15.611c.23-.279.441-.566.653-.854s.4-.561.594-.848a49.9,49.9,0,0,0-15.728-14.582,68.506,68.506,0,0,0,11.663-3.682c.72-.315,1.418-.651,2.12-1a68.154,68.154,0,0,1,10.465,10.823,7.633,7.633,0,0,1,2.384-.167,70.065,70.065,0,0,0-10.925-11.656c1.812-.975,3.583-2,5.318-3.024,1.956-1.14,3.947-2.307,5.972-3.359a83.381,83.381,0,0,1,15.553,22.876,5.371,5.371,0,0,0,.68-.157,7.57,7.57,0,0,0,1.236-.471,85.259,85.259,0,0,0-15.6-23.184A37.181,37.181,0,0,1,622,293.284a28.875,28.875,0,0,1,6.828-1.127,60.668,60.668,0,0,1,11.542,18.135,9.607,9.607,0,0,1,1.644-1.252,62.731,62.731,0,0,0-10.488-16.871A30.493,30.493,0,0,1,642.6,294.8a73.893,73.893,0,0,1,6.874,13.9,12.306,12.306,0,0,1,2.633,1.4,75.49,75.49,0,0,0-6.057-13.455,26.881,26.881,0,0,1,2.457,1.71,29.973,29.973,0,0,1,11.086,19.8,7.314,7.314,0,0,1,1.153,2.944,113.313,113.313,0,0,0-1.561-11.952,31.587,31.587,0,0,0-9.445-12.366,30.384,30.384,0,0,0-5.387-3.354l4.01-3.436c-.562-.406-1.144-.788-1.74-1.144l-4.286,3.672a32.465,32.465,0,0,0-11.512-2.383l5.394-7.205c-.137-.086-.256-.185-.379-.276-.406-.311-.791-.646-1.176-.98l-6.383,8.52a30.307,30.307,0,0,0-6.845,1.164,37.113,37.113,0,0,0-5.3,2.039l4.48-19.241a13.957,13.957,0,0,0-2.187.546l-4.616,19.84c-2.055,1.071-4.06,2.244-6.024,3.4-1.744,1.018-3.519,2.054-5.327,3.02l.606-14.395c-.671.515-1.36,1-2.064,1.443l-.59,14.005c-.6.284-1.183.573-1.78.835a75.394,75.394,0,0,1-13.513,4.077l-.531-.281,2.708-17.409c-.468-.108-.931-.2-1.4-.28-.185-.031-.378-.066-.566-.087l-2.9,18.653-.027.009c-3.491.765-7.085,1.56-10.564,2.606-1.22.369-2.608.835-4.086,1.425a12.308,12.308,0,0,1-.4-2.924l-.665-14.226c-.253.213-.489.434-.729.664a16.775,16.775,0,0,0-1.187,1.266l.584,12.39a13.558,13.558,0,0,0,.54,3.619,38.964,38.964,0,0,0-7.41,4.266A23.9,23.9,0,0,0,550.006,327.4Z" fill="#a54129"/>
      </g>
      <g id="Group_9" data-name="Group 9">
        <path id="Path_9" data-name="Path 9" d="M540.771,283.8a36.625,36.625,0,0,0,3.375,23.425c.339.672.707,1.362,1.1,2.078.347.625.717,1.264,1.118,1.9,3.14,5.113,7.666,10.377,13.236,11.3a15.108,15.108,0,0,0,12.949-4.151,28.942,28.942,0,0,0,5.646-8.245q.387-.789.751-1.592c1.006-2.212,1.918-4.473,2.88-6.681a47.851,47.851,0,0,1,3.578-6.848c.315-.5.652-.986,1-1.455a18.476,18.476,0,0,1,7.2-6.143c3.195-1.45,6.822-1.732,10.3-2.333.968-.163,1.927-.362,2.855-.612a14.85,14.85,0,0,0,4.453-1.909c4-2.612,6.01-7.35,7.33-11.949.022-.069.04-.131.063-.2q.215-.74.408-1.494c1.135-4.205,2.137-8.515,4.592-12.087l.019-.03a18.337,18.337,0,0,1,1.131-1.467c2.812-3.327,6.63-5.75,9.837-8.745A31.111,31.111,0,0,0,637.052,244c.433-.488.847-1,1.252-1.526a35.123,35.123,0,0,0,5.577-10.769c.2-.595.367-1.2.517-1.8a34.036,34.036,0,0,0,.869-12.877c-.012-.081-.017-.157-.029-.237-.635.413-1.273.815-1.921,1.2a55.143,55.143,0,0,1-6.878,3.478c-.6.251-1.182.487-1.783.713a55.473,55.473,0,0,1-10.155,2.824c-.614.114-1.231.216-1.842.311a55.6,55.6,0,0,1-8.172.581c-2.349-.009-4.8-.135-7.194-.045-.6.021-1.19.054-1.774.1a14.909,14.909,0,0,0-7.774,2.634,12.167,12.167,0,0,0-2.25,2.2,16.487,16.487,0,0,0-1.664,2.611c-2.61,4.945-3.507,11.29-7.416,15.417a14.009,14.009,0,0,1-3,2.4,15.686,15.686,0,0,1-1.694.9c-4.076,1.907-8.972,2.484-13.542,3.57-.589.14-1.17.285-1.741.447-.012,0-.012,0-.017.01a36.414,36.414,0,0,0-18.794,12.845c-.507.64-.979,1.291-1.434,1.964A35.372,35.372,0,0,0,540.771,283.8Z" fill="#fcd77c"/>
        <path id="Path_10" data-name="Path 10" d="M546.194,270.958l4.317,23.173a9,9,0,0,0,.969,3.048c-.268.426-.536.852-.8,1.282a89.088,89.088,0,0,0-5.438,10.846c-2.2,5.159-4.043,10.453-5.841,15.647l1.672.573c1.644-4.75,3.324-9.592,5.287-14.318A91.234,91.234,0,0,1,552.2,299.37c.166-.28.348-.552.514-.833.162.123.325.246.489.349a13.215,13.215,0,0,0,1.756.886L578.2,310.11q.387-.789.751-1.592l-23.27-10.356a8.783,8.783,0,0,1-2.007-1.116,48.593,48.593,0,0,1,12.8-13.47L585.4,294.989c.315-.5.652-.986,1-1.455L568.1,282.5a35.5,35.5,0,0,1,4.157-2.2c1.724-.77,3.575-1.409,5.352-2.031a62.037,62.037,0,0,0,6.325-2.482l19.971,9.271c.968-.163,1.927-.362,2.855-.612l-20.869-9.7c.509-.3,1.007-.607,1.488-.94,3.772-2.65,6.389-6.413,8.729-10.3l22.435,7.079c.022-.069.04-.131.063-.2q.215-.74.408-1.494l-21.98-6.94.721-1.245a55.409,55.409,0,0,1,6.65-9.76c.367-.384.741-.764,1.13-1.134l18.09,6.962a18.337,18.337,0,0,1,1.131-1.467l-17.75-6.821c3.888-3.265,8.6-5.617,13.163-7.737l.635-.3L637.052,244c.433-.488.847-1,1.252-1.526l-14.854-3.258a63.1,63.1,0,0,0,12.314-7.083l8.117-.428c.2-.595.367-1.2.517-1.8l-6.408.345a22.784,22.784,0,0,0,7.277-13.222c-.012-.081-.017-.157-.029-.237-.635.413-1.273.815-1.921,1.2a22.044,22.044,0,0,1-7.437,11.788c-.086.07-.18.136-.266.207a77.4,77.4,0,0,0,.825-8.517c-.6.251-1.182.487-1.783.713a78.521,78.521,0,0,1-1.013,8.982l-.067.406a69.109,69.109,0,0,1-11.139,6.176l2.064-12.74c-.614.114-1.231.216-1.842.311l-2.154,13.329-1.076.5a62.669,62.669,0,0,0-13.134,7.641l1-20.935c-.6.021-1.19.054-1.774.1l-1.068,22.455c-.458.43-.906.878-1.332,1.339a52.852,52.852,0,0,0-6.569,9.53l-1.055-28.489a16.487,16.487,0,0,0-1.664,2.611l1.061,28.713c-2.383,4-4.856,7.668-8.525,10.237a19.091,19.091,0,0,1-1.765,1.1c-.186-7.392-.586-14.824-1.186-22.236a15.686,15.686,0,0,1-1.694.9q.882,11.122,1.139,22.227c-1.852.857-3.806,1.545-5.826,2.254-1.819.638-3.7,1.29-5.493,2.089a36.149,36.149,0,0,0-4.357,2.3c.622-8.394.961-16.852.995-25.3-.589.14-1.17.285-1.741.447-.012,0-.012,0-.017.01-.051,8.712-.42,17.432-1.1,26.07a50.315,50.315,0,0,0-12.694,13.2,13.508,13.508,0,0,1-.385-1.607l-4.614-24.82C547.121,269.634,546.649,270.285,546.194,270.958Z" fill="#eaab4e"/>
      </g>
    </g>
    <g id="Group_17" data-name="Group 17">
      <g id="Group_11" data-name="Group 11">
        <path id="Path_11" data-name="Path 11" d="M282.8,331.926l1.7,3.151s38.787,2.667,63.028,26.181c0,0,5.091,12.848,23.272,7.757,0,0,39.272-1.939,111.754,33.212l90.421-93.573v-3.636l-140.6,1.939-106.906,3.151Z" fill="#87502a"/>
        <path id="Path_12" data-name="Path 12" d="M289.349,325.623l-6.545,6.3s41.211.97,68.6,29.575c0,0,3.879,6.787,18.666,5.09,0,0,39.756-2.424,112.481,31.757l90.421-93.33-60.119-7.273L351.408,286.594Z" fill="#965c30"/>
      </g>
      <g id="Group_16" data-name="Group 16">
        <g id="Group_15" data-name="Group 15">
          <path id="Path_13" data-name="Path 13" d="M274.982,322.571s8.314,1.181,12.716,7.913c0,0,33.141-7.25,66.541,26.927,0,0,5.7,6.473,16.312,4.142,0,0,37.284-4.4,106.673,31.329l9.6-3.871L453.145,321.68,342.07,294.494,301.161,309.77Z" fill="#e2c9c0"/>
          <g id="Group_14" data-name="Group 14">
            <path id="Path_14" data-name="Path 14" d="M570.6,297.211l-83.78,91.8s-60.98-37.55-124.54-33.38l.4-.32,104.24-82.49s52.2-8.23,102.58,23.69C569.872,296.741,570.232,296.971,570.6,297.211Z" fill="#ffebe1"/>
            <path id="Path_15" data-name="Path 15" d="M466.922,272.821l-104.64,82.81s-28.24-41.73-87.3-33.06l2.64-1.89,111.3-79.64s44.45-1.87,76.79,30.54C466.112,271.991,466.522,272.4,466.922,272.821Z" fill="#ffebe1"/>
            <path id="Path_16" data-name="Path 16" d="M466.922,272.821l-104.64,82.81s-28.24-41.73-87.3-33.06l2.64-1.89c25.65-11.37,55.92-11.66,84.28-15.47a307.45,307.45,0,0,0,103.81-33.63C466.112,271.991,466.522,272.4,466.922,272.821Z" fill="#f2ded6"/>
            <path id="Path_17" data-name="Path 17" d="M570.6,297.211l-83.78,91.8s-60.98-37.55-124.54-33.38l.4-.32q2.88-.51,5.82-.86c26.24-3.04,51.98-1.85,77.26,6.33a162.428,162.428,0,0,1,40.01,19.26,677.6,677.6,0,0,1,83.73-83.53C569.872,296.741,570.232,296.971,570.6,297.211Z" fill="#f2ded6"/>
            <g id="Group_12" data-name="Group 12">
              <path id="Path_18" data-name="Path 18" d="M467.127,282.093a144.1,144.1,0,0,1,79.087,22.054" fill="none" stroke="#ddbdaf" stroke-miterlimit="10" stroke-width="1"/>
              <path id="Path_19" data-name="Path 19" d="M461.266,287.413a144.094,144.094,0,0,1,79.087,22.053" fill="none" stroke="#ddbdaf" stroke-miterlimit="10" stroke-width="1"/>
              <path id="Path_20" data-name="Path 20" d="M455.4,292.732a144.1,144.1,0,0,1,79.087,22.054" fill="none" stroke="#ddbdaf" stroke-miterlimit="10" stroke-width="1"/>
              <path id="Path_21" data-name="Path 21" d="M449.544,298.052a144.094,144.094,0,0,1,79.087,22.053" fill="none" stroke="#ddbdaf" stroke-miterlimit="10" stroke-width="1"/>
              <path id="Path_22" data-name="Path 22" d="M443.683,303.371a144.1,144.1,0,0,1,79.087,22.054" fill="none" stroke="#ddbdaf" stroke-miterlimit="10" stroke-width="1"/>
              <path id="Path_23" data-name="Path 23" d="M437.823,308.691a144.094,144.094,0,0,1,79.086,22.054" fill="none" stroke="#ddbdaf" stroke-miterlimit="10" stroke-width="1"/>
              <path id="Path_24" data-name="Path 24" d="M431.962,314.011a144.094,144.094,0,0,1,79.086,22.053" fill="none" stroke="#ddbdaf" stroke-miterlimit="10" stroke-width="1"/>
              <path id="Path_25" data-name="Path 25" d="M426.1,319.33a144.094,144.094,0,0,1,79.086,22.054" fill="none" stroke="#ddbdaf" stroke-miterlimit="10" stroke-width="1"/>
              <path id="Path_26" data-name="Path 26" d="M420.24,324.65A144.088,144.088,0,0,1,499.326,346.7" fill="none" stroke="#ddbdaf" stroke-miterlimit="10" stroke-width="1"/>
              <path id="Path_27" data-name="Path 27" d="M414.379,329.969a144.089,144.089,0,0,1,79.086,22.054" fill="none" stroke="#ddbdaf" stroke-miterlimit="10" stroke-width="1"/>
              <path id="Path_28" data-name="Path 28" d="M408.518,335.289A144.089,144.089,0,0,1,487.6,357.342" fill="none" stroke="#ddbdaf" stroke-miterlimit="10" stroke-width="1"/>
              <path id="Path_29" data-name="Path 29" d="M402.657,340.608a144.1,144.1,0,0,1,79.086,22.054" fill="none" stroke="#ddbdaf" stroke-miterlimit="10" stroke-width="1"/>
            </g>
            <g id="Group_13" data-name="Group 13">
              <path id="Path_30" data-name="Path 30" d="M391.264,252.032s32.883-4.143,56.444,22.526" fill="none" stroke="#ddbdaf" stroke-miterlimit="10" stroke-width="1"/>
              <path id="Path_31" data-name="Path 31" d="M385.291,256.23s33.677-3.958,56.591,22.951" fill="none" stroke="#ddbdaf" stroke-miterlimit="10" stroke-width="1"/>
              <path id="Path_32" data-name="Path 32" d="M379.317,260.428s34.473-3.773,56.74,23.377" fill="none" stroke="#ddbdaf" stroke-miterlimit="10" stroke-width="1"/>
              <path id="Path_33" data-name="Path 33" d="M373.343,264.626s35.269-3.587,56.888,23.8" fill="none" stroke="#ddbdaf" stroke-miterlimit="10" stroke-width="1"/>
              <path id="Path_34" data-name="Path 34" d="M367.37,268.824s36.063-3.4,57.035,24.228" fill="none" stroke="#ddbdaf" stroke-miterlimit="10" stroke-width="1"/>
              <path id="Path_35" data-name="Path 35" d="M361.4,273.023s36.859-3.218,57.184,24.652" fill="none" stroke="#ddbdaf" stroke-miterlimit="10" stroke-width="1"/>
              <path id="Path_36" data-name="Path 36" d="M355.423,277.221s37.654-3.033,57.331,25.078" fill="none" stroke="#ddbdaf" stroke-miterlimit="10" stroke-width="1"/>
              <path id="Path_37" data-name="Path 37" d="M349.449,281.419s38.449-2.848,57.48,25.5" fill="none" stroke="#ddbdaf" stroke-miterlimit="10" stroke-width="1"/>
              <path id="Path_38" data-name="Path 38" d="M343.476,285.617s39.244-2.663,57.627,25.929" fill="none" stroke="#ddbdaf" stroke-miterlimit="10" stroke-width="1"/>
              <path id="Path_39" data-name="Path 39" d="M337.5,289.815s40.04-2.478,57.775,26.354" fill="none" stroke="#ddbdaf" stroke-miterlimit="10" stroke-width="1"/>
              <path id="Path_40" data-name="Path 40" d="M331.529,294.013s40.834-2.293,57.923,26.78" fill="none" stroke="#ddbdaf" stroke-miterlimit="10" stroke-width="1"/>
              <path id="Path_41" data-name="Path 41" d="M325.555,298.211s41.63-2.108,58.071,27.2" fill="none" stroke="#ddbdaf" stroke-miterlimit="10" stroke-width="1"/>
              <path id="Path_42" data-name="Path 42" d="M319.581,302.41s42.426-1.924,58.22,27.63" fill="none" stroke="#ddbdaf" stroke-miterlimit="10" stroke-width="1"/>
              <path id="Path_43" data-name="Path 43" d="M313.608,306.608s43.22-1.739,58.367,28.055" fill="none" stroke="#ddbdaf" stroke-miterlimit="10" stroke-width="1"/>
              <path id="Path_44" data-name="Path 44" d="M307.634,310.806s44.016-1.554,58.515,28.481" fill="none" stroke="#ddbdaf" stroke-miterlimit="10" stroke-width="1"/>
            </g>
          </g>
        </g>
        <path id="Path_45" data-name="Path 45" d="M292.529,311.686l97.353-68.841s31.7-3.751,72.03,27.386c0,0-43.893-27.011-70.342-25.7Z" fill="#fff3ee"/>
        <path id="Path_46" data-name="Path 46" d="M392.883,332.882l75.969-58.336s42.392-6.378,95.1,21.946c0,0-56.274-22.321-91.538-19.7Z" fill="#fff3ee"/>
      </g>
    </g>
    <g id="Group_23" data-name="Group 23">
      <path id="Path_47" data-name="Path 47" d="M550.673,314.181l-12.311,11.826c-.442.424-9.427-2.51-10.54-2.78q-5.306-1.291-10.672-2.385-10.976-2.235-22.156-3.638a300.72,300.72,0,0,0-45.049-2.235c-8.067.206-16.1,1.288-24.13,1.544,5.692-2.7,13.865-3.422,20.159-4.526,8.4-1.473,16.9-2.547,25.423-3.22a272.389,272.389,0,0,1,50.941.749A262.3,262.3,0,0,1,550.673,314.181Z" fill="url(#linear-gradient)" style="mix-blend-mode: multiply;isolation: isolate"/>
      <g id="Group_22" data-name="Group 22">
        <g id="Group_21" data-name="Group 21">
          <g id="Group_19" data-name="Group 19">
            <g id="Group_18" data-name="Group 18">
              <path id="Path_48" data-name="Path 48" d="M542.439,253.269,440.178,304.541l-2.261-4.511,99.57-49.923S540.079,250.218,542.439,253.269Z" fill="#ffdaa9"/>
              <path id="Path_49" data-name="Path 49" d="M543.787,255.425a12.775,12.775,0,0,1,.925,2.359L442.444,309.059l-2.266-4.518,102.261-51.272A12.9,12.9,0,0,1,543.787,255.425Z" fill="#ffce84"/>
              <path id="Path_50" data-name="Path 50" d="M544.712,257.784c1.033,3.716-.432,5.871-.432,5.871l-99.571,49.923-2.265-4.519Z" fill="#f4b060"/>
            </g>
            <path id="Path_51" data-name="Path 51" d="M443.9,305.887a15.583,15.583,0,0,1,.854,2.016l-12.937,5.767a7.629,7.629,0,0,0-2.064-2.406l8.167-11.234S441.229,300.565,443.9,305.887Z" fill="#ffebd7"/>
            <path id="Path_52" data-name="Path 52" d="M431.814,313.67l-5.647,2.517,3.583-4.923A7.629,7.629,0,0,1,431.814,313.67Z" fill="#754432"/>
            <path id="Path_53" data-name="Path 53" d="M444.751,307.9c1.343,3.911-.042,5.675-.042,5.675L432.564,315.3a10.882,10.882,0,0,0-.75-1.625Z" fill="#efd6bf"/>
            <path id="Path_54" data-name="Path 54" d="M432.564,315.3l-6.408.907.011-.015,5.647-2.517A10.882,10.882,0,0,1,432.564,315.3Z" fill="#603326"/>
          </g>
          <g id="Group_20" data-name="Group 20">
            <path id="Path_55" data-name="Path 55" d="M565.149,244.715a7.47,7.47,0,0,1,.774,2.739L546.3,257.292l-4.649-9.273,13.327-6.682A7.577,7.577,0,0,1,565.149,244.715Z" fill="#fcacac"/>
            <path id="Path_56" data-name="Path 56" d="M565.923,247.454a7.458,7.458,0,0,1-.354,3.046,7.592,7.592,0,0,1-3.8,4.385l-13.328,6.682-2.143-4.275Z" fill="#ed9494"/>
          </g>
          <path id="Path_57" data-name="Path 57" d="M551.365,251.626c2.583,5.152.5,8.226.5,8.226l-7.585,3.8s1.465-2.155.432-5.871a13.735,13.735,0,0,0-2.273-4.515c-2.36-3.051-4.952-3.162-4.952-3.162l7.585-3.8S548.778,246.466,551.365,251.626Z" fill="#d67b3c"/>
          <path id="Path_58" data-name="Path 58" d="M544.853,254.907a12.045,12.045,0,0,1,1.029,7.138l3.118-1.71a11.626,11.626,0,0,0-4.478-9.481,6.813,6.813,0,0,0-2.346-1.219c-.537-.143-2.031-.136-1.21.691.709.713,1.551,1.244,2.217,2.025A11.893,11.893,0,0,1,544.853,254.907Z" fill="#c1682b"/>
          <path id="Path_59" data-name="Path 59" d="M548.67,253.415a11.3,11.3,0,0,1,1.05,6.521,2.207,2.207,0,0,0,1.435-1.049,2.865,2.865,0,0,0,.169-1.607,12.8,12.8,0,0,0-3.178-7.1c-.353-.393-3.095-2.84-2.505-1.031a5.009,5.009,0,0,0,1.294,1.721A11.2,11.2,0,0,1,548.67,253.415Z" fill="#c1682b"/>
        </g>
        <path id="Path_60" data-name="Path 60" d="M549.556,245.48c-.364.254-.745.769-.424,1.076a.79.79,0,0,0,.715.08l7.117-1.534c.884-.191,5.338-.641,4.239-2.176-.914-1.277-4.217-.472-5.364-.211A17.981,17.981,0,0,0,549.556,245.48Z" fill="#ffcaca"/>
      </g>
    </g>
    <g id="Group_51" data-name="Group 51">
      <g id="Group_50" data-name="Group 50">
        <g id="Group_25" data-name="Group 25">
          <path id="Path_61" data-name="Path 61" d="M531.95,144.723l-2.891,2.312a11.348,11.348,0,0,0-6.976,3.943,5.333,5.333,0,0,0-1.425,4.587,4.424,4.424,0,0,0,3.368,2.933,8.584,8.584,0,0,0,3.715-.067c.307-.059.621-.131.921-.209a14.1,14.1,0,0,0,6.1-2.991,2.375,2.375,0,0,0,.229-.2,7.13,7.13,0,0,0,2.225-6.5A4.879,4.879,0,0,0,531.95,144.723Zm1.867,7.671a9.689,9.689,0,0,1-8.975,2.96,1.932,1.932,0,0,1-1.344-1.137c-.472-1.434,1.548-3.385,4.5-4.359s5.748-.61,6.22.824A1.927,1.927,0,0,1,533.817,152.394Z" fill="#51302b"/>
          <path id="Path_62" data-name="Path 62" d="M535.16,153.531a1.914,1.914,0,0,1-.4,1.7,8.317,8.317,0,0,1-4.113,2.662,10.493,10.493,0,0,1-2.908.538c-1.688.051-2.993-.424-3.3-1.364a1.932,1.932,0,0,1,.4-1.713,9.689,9.689,0,0,0,8.975-2.96A1.93,1.93,0,0,1,535.16,153.531Z" fill="#94a54c"/>
          <g id="Group_24" data-name="Group 24">
            <path id="Path_63" data-name="Path 63" d="M427.2,229.765l1.364,3.593,34.54,8.5L570.953,145.9l-1.271-3.646Z" fill="#b3c66d"/>
            <path id="Path_64" data-name="Path 64" d="M561.422,141.816l-34.279-1.8L427.2,229.769l26.019,6.067,8.554,1.991,107.916-95.576Zm-37.924,12.4c-.472-1.434,1.548-3.385,4.5-4.359s5.748-.61,6.22.824a1.927,1.927,0,0,1-.4,1.712,9.689,9.689,0,0,1-8.975,2.96A1.932,1.932,0,0,1,523.5,154.217Z" fill="#c6db8d"/>
            <path id="Path_65" data-name="Path 65" d="M534.22,150.682a1.927,1.927,0,0,1-.4,1.712,9.694,9.694,0,0,0-8.975,2.96,1.932,1.932,0,0,1-1.344-1.137c-.472-1.434,1.548-3.385,4.5-4.359S533.748,149.248,534.22,150.682Z" fill="#94a54c"/>
            <path id="Path_66" data-name="Path 66" d="M569.684,142.251l-4.018,3.557-.01,0-.977.87-.009,0-3.533,3.145-.01,0-.97.857-3.542,3.148-.01,0-.97.857-3.555,3.141-.009,0-.958.863-.01,0-3.552,3.151-.964.844-3.571,3.157-.942.848-3.587,3.173-.936.835-3.587,3.173-.948.829-3.574,3.179-.01,0-.939.826-3.584,3.182-.929.822-3.6,3.189-.923.81-3.6,3.2-.923.81-3.609,3.2-.913.807-3.618,3.2-.9.8-3.618,3.2-.913.807-3.618,3.2-.9.791-3.625,3.217-.9.791-3.634,3.22-.888.788-3.634,3.22-.888.788-3.644,3.223-.888.788-3.644,3.223-.872.772-3.65,3.236-.872.772-3.66,3.239-.872.772-3.406,3.019-8.554-1.991,108.208-94.019Z" fill="#f1f9d2"/>
            <path id="Path_67" data-name="Path 67" d="M429.828,228.4l97.818-86.389,29.472.9-28.568,1.326Z" fill="#dbeaa7"/>
            <path id="Path_68" data-name="Path 68" d="M453.106,234.05l103.906-89.915-1.823.1-102.84,89.057Z" fill="#b3c66d"/>
            <path id="Path_69" data-name="Path 69" d="M461.764,237.829l1.337,4.032-34.54-8.5-1.364-3.593Z" fill="#94a54c"/>
          </g>
        </g>
        <g id="Group_49" data-name="Group 49">
          <g id="Group_26" data-name="Group 26">
            <path id="Path_70" data-name="Path 70" d="M466.046,234.036l-.872.772-4.966-1.616.319-.948Z" fill="#444927"/>
          </g>
          <g id="Group_27" data-name="Group 27">
            <path id="Path_71" data-name="Path 71" d="M470.578,230.025l-.872.772-4.969-1.562.3-.964Z" fill="#444927"/>
          </g>
          <g id="Group_28" data-name="Group 28">
            <path id="Path_72" data-name="Path 72" d="M475.1,226.017l-.872.772-4.966-1.521.294-.96Z" fill="#444927"/>
          </g>
          <g id="Group_29" data-name="Group 29">
            <path id="Path_73" data-name="Path 73" d="M479.632,222.006l-.888.788-4.966-1.49.294-.96Z" fill="#444927"/>
          </g>
          <g id="Group_30" data-name="Group 30">
            <path id="Path_74" data-name="Path 74" d="M484.164,217.995l-.888.788-4.973-1.445.285-.957Z" fill="#444927"/>
          </g>
          <g id="Group_31" data-name="Group 31">
            <path id="Path_75" data-name="Path 75" d="M488.686,213.987l-.888.788-4.967-1.395.272-.964Z" fill="#444927"/>
          </g>
          <g id="Group_32" data-name="Group 32">
            <path id="Path_76" data-name="Path 76" d="M493.218,209.976l-.9.791-4.964-1.354.262-.96Z" fill="#444927"/>
          </g>
          <g id="Group_33" data-name="Group 33">
            <path id="Path_77" data-name="Path 77" d="M497.74,205.968l-.9.791-4.97-1.309.262-.96Z" fill="#444927"/>
          </g>
          <g id="Group_34" data-name="Group 34">
            <path id="Path_78" data-name="Path 78" d="M502.272,201.957l-.913.807-4.957-1.271.247-.976Z" fill="#444927"/>
          </g>
          <g id="Group_35" data-name="Group 35">
            <path id="Path_79" data-name="Path 79" d="M506.794,197.949l-.9.8-4.964-1.227.237-.973Z" fill="#444927"/>
          </g>
          <g id="Group_36" data-name="Group 36">
            <path id="Path_80" data-name="Path 80" d="M511.326,193.938l-.913.807-4.97-1.183.237-.973Z" fill="#444927"/>
          </g>
          <g id="Group_37" data-name="Group 37">
            <path id="Path_81" data-name="Path 81" d="M515.858,189.927l-.923.81-4.964-1.132.225-.98Z" fill="#444927"/>
          </g>
          <g id="Group_38" data-name="Group 38">
            <path id="Path_82" data-name="Path 82" d="M520.38,185.919l-.923.81-4.961-1.091.215-.976Z" fill="#444927"/>
          </g>
          <g id="Group_39" data-name="Group 39">
            <path id="Path_83" data-name="Path 83" d="M524.912,181.908l-.929.822-4.961-1.059.206-.973Z" fill="#444927"/>
          </g>
          <g id="Group_40" data-name="Group 40">
            <path id="Path_84" data-name="Path 84" d="M529.434,177.9l-.939.826-4.958-1.018.206-.973Z" fill="#444927"/>
          </g>
          <g id="Group_41" data-name="Group 41">
            <path id="Path_85" data-name="Path 85" d="M533.966,173.889l-.948.829-4.952-.968.19-.989Z" fill="#444927"/>
          </g>
          <g id="Group_42" data-name="Group 42">
            <path id="Path_86" data-name="Path 86" d="M538.488,169.881l-.936.835-4.962-.933.18-.986Z" fill="#444927"/>
          </g>
          <g id="Group_43" data-name="Group 43">
            <path id="Path_87" data-name="Path 87" d="M543.017,165.86l-.942.848-4.959-.892.171-.983Z" fill="#444927"/>
          </g>
          <g id="Group_44" data-name="Group 44">
            <path id="Path_88" data-name="Path 88" d="M547.552,161.859l-.964.844-4.956-.851.171-.983Z" fill="#444927"/>
          </g>
          <g id="Group_45" data-name="Group 45">
            <path id="Path_89" data-name="Path 89" d="M552.071,157.841l-.958.863-.01,0-4.943-.813.158-.989Z" fill="#444927"/>
          </g>
          <g id="Group_46" data-name="Group 46">
            <path id="Path_90" data-name="Path 90" d="M556.606,153.84l-.97.857-4.95-.768.149-.986Z" fill="#444927"/>
          </g>
          <g id="Group_47" data-name="Group 47">
            <path id="Path_91" data-name="Path 91" d="M561.128,149.832l-.97.857-4.956-.724.149-.986Z" fill="#444927"/>
          </g>
          <g id="Group_48" data-name="Group 48">
            <path id="Path_92" data-name="Path 92" d="M565.657,145.811l-.977.87-.009,0L559.727,146l.139-.983Z" fill="#444927"/>
          </g>
        </g>
      </g>
    </g>
    <g id="Group_54" data-name="Group 54">
      <g id="Group_53" data-name="Group 53">
        <path id="Path_93" data-name="Path 93" d="M597.724,406.822c.218.078.437.142.642.218,3.145,1.027,6.33,1.946,9.53,2.71a132.43,132.43,0,0,0,47.789,2.894c.23-.034.457-.054.686-.088A9.052,9.052,0,0,0,664,401.262l-19.728-74.673.531-29.107-6.729-.616-6.706-.7-1.277,7.144-3.84,21.515L592.43,394.265A9.052,9.052,0,0,0,597.724,406.822Z" fill="#afd7dd"/>
        <path id="Path_94" data-name="Path 94" d="M607.9,409.75a132.43,132.43,0,0,0,47.789,2.894c.23-.034.457-.054.686-.088A9.052,9.052,0,0,0,664,401.262l-19.728-74.673.531-29.107-6.729-.616-6.706-.7-1.277,7.144A146.781,146.781,0,0,1,649.245,364.9c.938,11.92.045,24.944-7.639,34.1-7.346,8.738-19.656,12.08-31.018,11.068C609.692,410,608.786,409.88,607.9,409.75Z" fill="#8dc6c1"/>
        <path id="Path_95" data-name="Path 95" d="M642.049,324.29a31.112,31.112,0,0,0-10.266-21.838l6.429.453,3.165.222c1.28.09,1.242.208,1.283,1.454q.207,6.36-.107,12.723C642.438,319.636,642.276,321.967,642.049,324.29Z" fill="#96ccc6"/>
        <g id="Group_52" data-name="Group 52">
          <path id="Path_96" data-name="Path 96" d="M626.739,297.735c-.269,2.746,4.5,5.461,10.661,6.063s11.365-1.137,11.633-3.884-4.5-5.461-10.661-6.063S627.007,294.988,626.739,297.735Z" fill="#8dc6c1"/>
          <path id="Path_97" data-name="Path 97" d="M626.891,296.176c-.269,2.746,4.505,5.461,10.661,6.063s11.365-1.137,11.634-3.884-4.5-5.461-10.662-6.063S627.159,293.429,626.891,296.176Z" fill="#afd7dd"/>
          <path id="Path_98" data-name="Path 98" d="M630.669,296.545c-.177,1.816,2.978,3.61,7.048,4.008s7.513-.751,7.69-2.567-2.977-3.61-7.047-4.008S630.847,294.729,630.669,296.545Z" fill="#96ccc6"/>
        </g>
        <path id="Path_99" data-name="Path 99" d="M657.722,389.059c1.292,4.978,1.658,10.6-1.056,14.963-2.414,3.884-6.909,6.093-11.427,6.8s-9.127.114-13.661-.482c6.808-1.761,13.4-5.362,17.337-11.191a29.045,29.045,0,0,0,4.45-14.029c.4-5.093-.521-10.054-.521-15.108.618,2.163.834,4.474,1.3,6.678C655.034,380.9,656.642,384.9,657.722,389.059Z" fill="#96ccc6"/>
        <path id="Path_100" data-name="Path 100" d="M632.615,323.518a3.494,3.494,0,0,1-.411,1.724,1.2,1.2,0,0,1-1.543.487,1.753,1.753,0,0,1-.571-1.488,69.83,69.83,0,0,1,1.214-16.133c.3-1.571.832-4.3,1.922-1.444.8,2.087.089,5-.036,7.177Q632.914,318.68,632.615,323.518Z" fill="#e1f9f8"/>
        <path id="Path_101" data-name="Path 101" d="M601.178,396.717a5.612,5.612,0,0,1-1.308,2.129,1.917,1.917,0,0,1-2.315.272c-.953-.71-.642-2.188-.232-3.3q9.777-26.582,22.057-52.149,1.54-3.21,3.121-6.4c.578-1.167,1.9-5.158,3.187-5.624,1.223-.445,1.763,1.265,1.766,2.277.005,1.961-1.509,4.24-2.262,6.021l-11.358,26.854Q607.505,381.755,601.178,396.717Z" fill="#e1f9f8"/>
        <path id="Path_102" data-name="Path 102" d="M611.837,363.161a8.266,8.266,0,0,1,1.862-2.1,11.686,11.686,0,0,1,6.148-1.892,61.274,61.274,0,0,1,22.528,2.107c2.029.58,5.348,1.152,7.182,2.677C638.655,372.348,623.9,369.876,611.837,363.161Z" fill="#7ec7e0" style="mix-blend-mode: multiply;isolation: isolate"/>
        <path id="Path_103" data-name="Path 103" d="M610.409,365.827a22.661,22.661,0,0,1,1.428-2.666c12.067,6.715,26.818,9.187,37.72.793a3.916,3.916,0,0,1,.891.983c1.791,3.01,2.626,7.222,3.584,10.572a117.969,117.969,0,0,1,2.882,12.69c.769,4.53,1.19,9.51-1.229,13.417-2.331,3.766-6.774,5.641-11.063,6.746a53.816,53.816,0,0,1-32.609-1.915c-4.293-1.662-8.687-4.227-10.342-8.523-1.511-3.92-.379-8.317.913-12.314A166.626,166.626,0,0,1,610.409,365.827Z" fill="#56a0c1" style="mix-blend-mode: multiply;isolation: isolate"/>
      </g>
    </g>
    <g id="Group_65" data-name="Group 65">
      <g id="Group_55" data-name="Group 55">
        <path id="Path_104" data-name="Path 104" d="M463.913,112.76a8.677,8.677,0,1,1-12.254-9.88A8.689,8.689,0,0,0,462.1,113.421,8.181,8.181,0,0,0,463.913,112.76Z" fill="#eda558"/>
        <path id="Path_105" data-name="Path 105" d="M463.94,108.652a8.536,8.536,0,0,1-.027,4.108,8.181,8.181,0,0,1-1.817.661,8.689,8.689,0,0,1-10.437-10.541,8.237,8.237,0,0,1,1.827-.664A8.685,8.685,0,0,1,463.94,108.652Z" fill="#fcd77c"/>
      </g>
      <g id="Group_56" data-name="Group 56">
        <path id="Path_106" data-name="Path 106" d="M470.895,149.258c-9.118,2.169-22.707-8.826-32.048-26.668-5-9.547-8.073-19.621-8.659-28.368-.6-8.978,1.487-15.532,5.88-18.453,8.893-5.909,24.6,5.472,35.018,25.377,5,9.547,8.074,19.621,8.66,28.367.6,8.979-1.487,15.532-5.88,18.454A9.156,9.156,0,0,1,470.895,149.258ZM439.622,76.5a7.937,7.937,0,0,0-2.582,1.121c-3.82,2.541-5.622,8.44-5.075,16.61.563,8.4,3.538,18.12,8.377,27.363,9.884,18.881,24.489,29.88,32.553,24.516,3.82-2.54,5.621-8.439,5.074-16.61-.563-8.4-3.538-18.119-8.377-27.362C460.688,85.132,447.955,74.52,439.622,76.5Z" fill="#ffebe1"/>
      </g>
      <g id="Group_57" data-name="Group 57">
        <path id="Path_107" data-name="Path 107" d="M425.269,139.58c-5.075-7.666.685-24.038,14.276-38.868,7.272-7.936,15.68-14.279,23.676-17.862,8.207-3.678,15.042-4.028,19.245-.988,8.5,6.157,3.086,24.618-12.076,41.163-7.272,7.936-15.68,14.279-23.676,17.861-8.208,3.678-15.042,4.029-19.244.989A8.82,8.82,0,0,1,425.269,139.58Zm57.7-54.181a7.678,7.678,0,0,0-1.912-2c-3.654-2.644-9.78-2.256-17.249,1.09-7.681,3.442-15.788,9.569-22.829,17.252-14.383,15.694-19.808,33.006-12.093,38.587,3.655,2.644,9.78,2.255,17.249-1.091,7.681-3.442,15.788-9.569,22.829-17.251C481.916,107.853,487.6,92.4,482.965,85.4Z" fill="#ffebe1"/>
      </g>
      <g id="Group_58" data-name="Group 58">
        <path id="Path_108" data-name="Path 108" d="M414.929,104.992c3.054-8.719,19.6-14.075,39.632-12.235,10.722.984,20.859,3.845,28.544,8.056,7.888,4.322,12.293,9.57,12.4,14.779.218,10.54-17.782,17.441-40.135,15.388-10.722-.984-20.859-3.845-28.544-8.055-7.888-4.323-12.293-9.57-12.4-14.779A8.915,8.915,0,0,1,414.929,104.992Zm78.059,13.15a7.753,7.753,0,0,0,.438-2.741c-.1-4.529-4.1-9.189-11.282-13.122-7.382-4.045-17.164-6.8-27.545-7.75-21.2-1.947-38.293,4.248-38.09,13.808.1,4.529,4.1,9.188,11.282,13.121,7.382,4.045,17.164,6.8,27.545,7.75C474.437,130.962,490.2,126.11,492.988,118.142Z" fill="#ffebe1"/>
      </g>
      <g id="Group_59" data-name="Group 59">
        <path id="Path_109" data-name="Path 109" d="M422.208,111.325a8.677,8.677,0,1,1-12.254-9.88,8.689,8.689,0,0,0,10.437,10.541A8.18,8.18,0,0,0,422.208,111.325Z" fill="#9061af"/>
        <path id="Path_110" data-name="Path 110" d="M422.235,107.217a8.536,8.536,0,0,1-.027,4.108,8.18,8.18,0,0,1-1.817.661,8.689,8.689,0,0,1-10.437-10.541,8.236,8.236,0,0,1,1.827-.664A8.684,8.684,0,0,1,422.235,107.217Z" fill="#ab7bc6"/>
      </g>
      <g id="Group_60" data-name="Group 60">
        <path id="Path_111" data-name="Path 111" d="M445.73,79.506a8.677,8.677,0,1,1-12.254-9.88,8.689,8.689,0,0,0,10.437,10.541A8.181,8.181,0,0,0,445.73,79.506Z" fill="#6088a0"/>
        <path id="Path_112" data-name="Path 112" d="M445.757,75.4a8.532,8.532,0,0,1-.027,4.107,8.181,8.181,0,0,1-1.817.661,8.689,8.689,0,0,1-10.437-10.541,8.236,8.236,0,0,1,1.827-.664A8.685,8.685,0,0,1,445.757,75.4Z" fill="#7096b2"/>
      </g>
      <g id="Group_61" data-name="Group 61">
        <path id="Path_113" data-name="Path 113" d="M490.1,87.606a8.677,8.677,0,1,1-12.254-9.88,8.689,8.689,0,0,0,10.437,10.542A8.252,8.252,0,0,0,490.1,87.606Z" fill="#b3c66d"/>
        <path id="Path_114" data-name="Path 114" d="M490.128,83.5a8.532,8.532,0,0,1-.026,4.107,8.252,8.252,0,0,1-1.817.662,8.689,8.689,0,0,1-10.437-10.542,8.237,8.237,0,0,1,1.827-.664A8.684,8.684,0,0,1,490.128,83.5Z" fill="#c6db8d"/>
      </g>
      <g id="Group_62" data-name="Group 62">
        <path id="Path_115" data-name="Path 115" d="M500.292,122.491a8.677,8.677,0,1,1-12.255-9.88,8.689,8.689,0,0,0,10.438,10.541A8.2,8.2,0,0,0,500.292,122.491Z" fill="#8dc6c1"/>
        <path id="Path_116" data-name="Path 116" d="M500.318,118.383a8.536,8.536,0,0,1-.026,4.108,8.2,8.2,0,0,1-1.817.661,8.689,8.689,0,0,1-10.438-10.541,8.245,8.245,0,0,1,1.828-.664A8.684,8.684,0,0,1,500.318,118.383Z" fill="#afd7dd"/>
      </g>
      <g id="Group_63" data-name="Group 63">
        <path id="Path_117" data-name="Path 117" d="M477.344,148.766a8.678,8.678,0,1,1-12.255-9.88,8.689,8.689,0,0,0,10.438,10.541A8.2,8.2,0,0,0,477.344,148.766Z" fill="#e2883d"/>
        <path id="Path_118" data-name="Path 118" d="M477.37,144.658a8.536,8.536,0,0,1-.026,4.108,8.2,8.2,0,0,1-1.817.661,8.689,8.689,0,0,1-10.438-10.541,8.245,8.245,0,0,1,1.828-.664A8.684,8.684,0,0,1,477.37,144.658Z" fill="#f7a357"/>
      </g>
      <g id="Group_64" data-name="Group 64">
        <path id="Path_119" data-name="Path 119" d="M438.893,141.691a8.677,8.677,0,1,1-12.254-9.881,8.69,8.69,0,0,0,10.437,10.542A8.181,8.181,0,0,0,438.893,141.691Z" fill="#c14c30"/>
        <path id="Path_120" data-name="Path 120" d="M438.92,137.583a8.536,8.536,0,0,1-.027,4.108,8.181,8.181,0,0,1-1.817.661,8.69,8.69,0,0,1-10.437-10.542,8.234,8.234,0,0,1,1.827-.663A8.684,8.684,0,0,1,438.92,137.583Z" fill="#d36240"/>
      </g>
    </g>
    <g id="Group_66" data-name="Group 66">
      <path id="Path_121" data-name="Path 121" d="M602.48,201.753c-.6,2.566-6.513,9.825-9.247,11.392a22.892,22.892,0,0,1-3.682,1.147c-.466.115-.967.246-1.5.377-3.91.959-9.534,2.189-15.363,3.371-.477.1-.954.194-1.439.288-1.958.391-3.924.78-5.843,1.14-8.865,1.682-16.73,2.941-18.078,2.628a5.377,5.377,0,0,1-1.237-.479c-.336-.166-.652-.351-.97-.529a78.849,78.849,0,0,1-10.439-7.373c-1.983-1.562-7.662-4.9-7.718-7.819a2.239,2.239,0,0,1,.094-.68c.916-2.947,4.532-5.7,6.72-7.662,2.112-1.911,4.526-4.366,7.167-5.532,1.368-.6,6.483-1.765,12.689-2.924,1.669-.314,3.424-.624,5.2-.921.423-.069.839-.14,1.262-.21l.007,0c5.037-.832,10.189-1.542,14.292-1.889l.007,0c.384-.038.767-.069,1.132-.1l.162-.01c1.175-.078,2.247-.124,3.173-.125.264,0,.518,0,.756.009a8.141,8.141,0,0,1,2.447.321c4.412,1.648,18.32,11.161,20.2,14.734a1.4,1.4,0,0,1,.1.2,1.343,1.343,0,0,1,.063.175,1.058,1.058,0,0,1,.049.235.305.305,0,0,1,0,.12A.287.287,0,0,1,602.48,201.753Z" fill="#fff4eb"/>
      <path id="Path_122" data-name="Path 122" d="M602.48,201.753c-.6,2.566-6.513,9.825-9.247,11.392a22.892,22.892,0,0,1-3.682,1.147c-.466.115-.967.246-1.5.377-3.91.959-9.534,2.189-15.363,3.371-.477.1-.954.194-1.439.288-1.958.391-3.924.78-5.843,1.14-8.865,1.682-16.73,2.941-18.078,2.628a5.377,5.377,0,0,1-1.237-.479,8.352,8.352,0,0,0,3.293-2.53,25.008,25.008,0,0,0,3.093-5.856A15.863,15.863,0,0,1,556,207.667c2.491-2.27,6.035-2.89,9.371-3.375,3.13-.454,6.272-.857,9.414-1.228,1.656-.189,3.312-.379,4.97-.544.376-.04.753-.08,1.135-.111q7.589-.774,15.216-1.195c.169-.009.34-.025.516-.024.4-.027.8-.053,1.205-.071,1.479-.079,2.962-.142,4.444-.2a1.942,1.942,0,0,1,.161.373,1.058,1.058,0,0,1,.049.235.305.305,0,0,1,0,.12A.287.287,0,0,1,602.48,201.753Z" fill="#ffebd7"/>
      <path id="Path_123" data-name="Path 123" d="M602.485,201.523c-.808-.061-1.619-.106-2.423-.149-.709-.037-1.411-.073-2.115-.1-.015,0-.025,0-.04,0s-.024,0-.032,0c-.4-.022-.8-.036-1.2-.04-.189-.012-.372-.015-.562-.019h-.1c-.443-.015-.9-.025-1.342-.025-2.9-.044-5.8.017-8.686.224-.5.027-1,.062-1.51.111-1.286.108-2.57.241-3.856.421q-.641.078-1.287.18l-.007,0c-.008,0-.017,0-.025,0-.76.111-1.514.231-2.266.375q-1.173.207-2.356.458-5.6-3.672-11.191-7.365c-3.26-2.146-6.534-4.264-9.771-6.437-.027-.022-.055-.036-.082-.059,1.669-.314,3.424-.624,5.2-.921.423-.069.839-.14,1.262-.21l.007,0c5.037-.832,10.189-1.542,14.292-1.889l.007,0c.384-.038.767-.069,1.132-.1l.162-.01c1.175-.078,2.247-.124,3.173-.125.264,0,.518,0,.756.009a8.141,8.141,0,0,1,2.447.321c4.412,1.648,18.32,11.161,20.2,14.734a1.4,1.4,0,0,1,.1.2,1.343,1.343,0,0,1,.063.175A1.058,1.058,0,0,1,602.485,201.523Z" fill="#afd7dd"/>
      <path id="Path_124" data-name="Path 124" d="M602.48,201.753c-.6,2.566-6.513,9.825-9.247,11.392a22.892,22.892,0,0,1-3.682,1.147c-.466.115-.967.246-1.5.377-3.91.959-9.534,2.189-15.363,3.371-.477.1-.954.194-1.439.288-1.958.391-3.924.78-5.843,1.14a104.73,104.73,0,0,0,9.383-16.4.028.028,0,0,0,.013-.021.969.969,0,0,1-.124-.084q2.316-.49,4.647-.835c.43-.068.859-.128,1.294-.178a98.263,98.263,0,0,1,15.491-.732c.19,0,.373.007.562.019.413.008.824.024,1.235.039,1.526.06,3.047.142,4.578.251a.305.305,0,0,1,0,.12A.287.287,0,0,1,602.48,201.753Z" fill="#91c8ce"/>
      <path id="Path_125" data-name="Path 125" d="M530.837,204.671c-.239.417-.453.985-.124,1.336.407.433,1.118.041,1.562-.353l4.753-4.213c1.576-1.4,3.31-2.863,5.408-3.032,2.117-.171,4.089,1.028,5.778,2.317s3.348,2.756,5.407,3.276a1.556,1.556,0,0,0,1.164-.048,1.2,1.2,0,0,0,.331-1.53,3.489,3.489,0,0,0-1.186-1.218L548.9,197.5a3.244,3.244,0,0,1-1.557-1.981,2.257,2.257,0,0,1,1.7-2.2,8.417,8.417,0,0,1,3-.135c1,.049,2.7.115,2.85-1.02.143-1.083-.8-1.409-1.612-1.5-2.035-.234-4.655.651-6.566,1.272a29.044,29.044,0,0,0-11.339,6.887A27.248,27.248,0,0,0,530.837,204.671Z" fill="#fffefd"/>
      <path id="Path_126" data-name="Path 126" d="M580.227,205.174c-2.477,4.308-4.977,8.61-7.539,12.866-.477.1-.954.194-1.439.288,1.092-1.813,2.183-3.626,3.254-5.451,1.7-2.862,3.391-5.732,5.049-8.61.334-.576.684-1.189.207-1.747a.652.652,0,0,0-.063-.071,4.436,4.436,0,0,0-.364-.323l-.007,0c-.426-.331-.932-.592-1.376-.879q-2.082-1.345-4.151-2.7-7.6-5.01-14.963-10.364c.423-.069.839-.14,1.262-.21l.007,0q3.783,2.675,7.616,5.273,4.245,2.9,8.562,5.7c.72.47,1.435.932,2.157,1.4a15.412,15.412,0,0,1,1.813,1.227,2.4,2.4,0,0,1,.367.381,1.946,1.946,0,0,1,.275.463,1.7,1.7,0,0,1,.152.721A4.387,4.387,0,0,1,580.227,205.174Z" fill="#6299b5"/>
      <path id="Path_127" data-name="Path 127" d="M598.052,202.3a4.426,4.426,0,0,1-1.013,1.854l-1.61,2.188q-1.566,2.1-3.116,4.207-1.383,1.881-2.762,3.747c-.466.115-.967.246-1.5.377q2.005-2.706,4.02-5.417,1.5-2.022,3-4.051c.5-.673,1.015-1.344,1.5-2.029.431-.586.824-1.245.2-1.853a.868.868,0,0,0-.1-.086.128.128,0,0,0-.046-.043,19.114,19.114,0,0,0-1.633-1.249c-.645-.485-1.3-.965-1.947-1.442-1.323-.97-2.658-1.919-3.995-2.86-4.775-3.352-9.687-6.489-14.648-9.557.384-.038.767-.069,1.132-.1l.162-.01c2.467,1.435,4.894,2.941,7.295,4.488q4.267,2.752,8.411,5.7c1.377.974,2.734,1.968,4.088,2.977a23.43,23.43,0,0,1,1.884,1.435,2.409,2.409,0,0,1,.456.545,1.551,1.551,0,0,1,.076.153A1.657,1.657,0,0,1,598.052,202.3Z" fill="#6299b5"/>
    </g>
    <g id="Group_68" data-name="Group 68">
      <path id="Path_128" data-name="Path 128" d="M662.106,112.851,650.25,90.683c.229.3-3.45,4.074-3.624,5.037-.333,1.841,2.658,3.841,3.774,5Z" fill="#ffebe1"/>
      <g id="Group_67" data-name="Group 67">
        <path id="Path_129" data-name="Path 129" d="M661.858,88.435a13.145,13.145,0,0,1-2.373,4.536c-2.683,3.625-8.284,8.758-19.8,12.859l-.567-14.5-.974-.575-12.118-7.105-.014,0s3.975-14.553,21-13.333l1.221,13.119Z" fill="#c6db8d"/>
        <path id="Path_130" data-name="Path 130" d="M647.014,70.32l1.221,13.119s-.11,5.126-7.762,7.521c-.424.138-.874.258-1.353.375l-.974-.575-12.118-7.105C626.449,83.759,635.674,85.708,647.014,70.32Z" fill="#b0c170"/>
        <path id="Path_131" data-name="Path 131" d="M659.485,92.971c-2.683,3.625-8.284,8.758-19.8,12.859l-.567-14.5-.974-.575A7.38,7.38,0,0,1,640.8,86.4a8.7,8.7,0,0,0-.331,4.563A8.367,8.367,0,0,0,644.858,97c3.243,1.615,7.238.931,10.4-.837A21.868,21.868,0,0,0,659.485,92.971Z" fill="#b0c170"/>
        <path id="Path_132" data-name="Path 132" d="M628.071,82.761c3.979-5.785,10.079-8.946,16.863-10.073-2.9-1.855-7.023.062-9.725,1.731a18.291,18.291,0,0,0-4.272,3.645C629.7,79.507,629.156,81.289,628.071,82.761Z" fill="#dbeaa7"/>
        <path id="Path_133" data-name="Path 133" d="M655.284,92.033a2.8,2.8,0,0,0,1.646.747,1.878,1.878,0,0,0,1.481-.958,5.569,5.569,0,0,0,.6-1.73l-8.19-4.072a1.845,1.845,0,0,0-.864-.263c-2.306.085.232,2.422.677,2.759Z" fill="#dbeaa7"/>
      </g>
    </g>
    <g id="Group_70" data-name="Group 70">
      <path id="Path_134" data-name="Path 134" d="M616.268,204.984l19.347-16.053c-.245.284-4.682-2.564-5.66-2.542-1.871.043-3.232,3.373-4.142,4.7Z" fill="#ffebe1"/>
      <g id="Group_69" data-name="Group 69">
        <path id="Path_135" data-name="Path 135" d="M640.14,199.855a13.142,13.142,0,0,1-4.918-1.417c-4.09-1.9-10.239-6.364-16.562-16.824l14.089-3.456.368-1.07,4.537-13.295v-.014s15.054.982,17.265,17.907l-12.609,3.822Z" fill="#d36240"/>
        <path id="Path_136" data-name="Path 136" d="M654.918,181.686l-12.609,3.822s-5.044.917-8.922-6.1c-.22-.388-.428-.805-.638-1.25l.368-1.07,4.537-13.295C637.636,164.227,637.572,173.655,654.918,181.686Z" fill="#c14c30"/>
        <path id="Path_137" data-name="Path 137" d="M635.222,198.438c-4.09-1.9-10.239-6.364-16.562-16.824l14.089-3.456.368-1.07a7.374,7.374,0,0,1,4.807,1.731,8.712,8.712,0,0,0-4.537.589,8.369,8.369,0,0,0-5.04,5.5c-.933,3.5.537,7.277,2.9,10.017A21.877,21.877,0,0,0,635.222,198.438Z" fill="#c14c30"/>
        <path id="Path_138" data-name="Path 138" d="M638.938,165.616c6.464,2.741,10.782,8.085,13.244,14.506,1.237-3.214-1.466-6.869-3.642-9.182a18.278,18.278,0,0,0-4.426-3.456C642.452,166.561,640.6,166.384,638.938,165.616Z" fill="#ed7e64"/>
        <path id="Path_139" data-name="Path 139" d="M635.3,194.135a2.8,2.8,0,0,0-.4,1.762,1.878,1.878,0,0,0,1.235,1.258,5.528,5.528,0,0,0,1.814.239q1.176-4.419,2.351-8.839a1.84,1.84,0,0,0,.085-.9c-.545-2.242-2.327.713-2.567,1.216Z" fill="#ed7e64"/>
      </g>
    </g>
  </g>
</svg>
